<svg xmlns="http://www.w3.org/2000/svg" data-name="Layer 1" width="786.82" height="572.258"><path d="M0 434.29a289.003 289.003 0 0 0 28.12 28.95l730.58 1a289.003 289.003 0 0 0 28.12-28.95ZM495.43 341.591v85.704a4.122 4.122 0 0 0 4.119 4.12h127.004a4.122 4.122 0 0 0 4.12-4.12v-85.704a4.124 4.124 0 0 0-4.12-4.114H499.55a4.124 4.124 0 0 0-4.12 4.114Z" fill="#3f3d56"/><path d="M498.41 342.658v83.58a2.205 2.205 0 0 0 2.2 2.201h124.886a2.205 2.205 0 0 0 2.202-2.2v-83.581a2.206 2.206 0 0 0-2.202-2.206H500.611a2.206 2.206 0 0 0-2.202 2.206Z" fill="#3aafa9"/><path d="M492.774 444.01a2.47 2.47 0 0 0 1.943.93H630.71a2.502 2.502 0 0 0 2.446-3.016l-2.11-10.027a2.507 2.507 0 0 0-1.559-1.818 2.425 2.425 0 0 0-.888-.168H496.82a2.424 2.424 0 0 0-.888.168 2.507 2.507 0 0 0-1.558 1.818l-2.111 10.027a2.5 2.5 0 0 0 .51 2.086Z" fill="#2f2e41"/><rect x="830.034" y="595.588" width="4.188" height="2.513" rx=".488" transform="rotate(-180 728.833 514.91)" fill="#3f3d56"/><rect x="821.657" y="595.588" width="4.188" height="2.513" rx=".488" transform="rotate(-180 720.456 514.91)" fill="#3f3d56"/><rect x="813.28" y="595.588" width="4.188" height="2.513" rx=".488" transform="rotate(-180 712.08 514.91)" fill="#3f3d56"/><rect x="804.903" y="595.588" width="4.188" height="2.513" rx=".488" transform="rotate(-180 703.702 514.91)" fill="#3f3d56"/><rect x="796.526" y="595.588" width="4.188" height="2.513" rx=".488" transform="rotate(-180 695.325 514.91)" fill="#3f3d56"/><rect x="788.149" y="595.588" width="4.188" height="2.513" rx=".488" transform="rotate(-180 686.948 514.91)" fill="#3f3d56"/><rect x="779.772" y="595.588" width="4.188" height="2.513" rx=".488" transform="rotate(-180 678.571 514.91)" fill="#3f3d56"/><rect x="771.395" y="595.588" width="4.188" height="2.513" rx=".488" transform="rotate(-180 670.194 514.91)" fill="#3f3d56"/><rect x="763.018" y="595.588" width="4.188" height="2.513" rx=".488" transform="rotate(-180 661.817 514.91)" fill="#3f3d56"/><rect x="754.641" y="595.588" width="4.188" height="2.513" rx=".488" transform="rotate(-180 653.44 514.91)" fill="#3f3d56"/><rect x="746.264" y="595.588" width="4.188" height="2.513" rx=".488" transform="rotate(-180 645.063 514.91)" fill="#3f3d56"/><rect x="737.887" y="595.588" width="4.188" height="2.513" rx=".488" transform="rotate(-180 636.686 514.91)" fill="#3f3d56"/><rect x="729.51" y="595.588" width="4.188" height="2.513" rx=".488" transform="rotate(-180 628.31 514.91)" fill="#3f3d56"/><rect x="721.133" y="595.588" width="4.188" height="2.513" rx=".488" transform="rotate(-180 619.932 514.91)" fill="#3f3d56"/><rect x="712.756" y="595.588" width="4.188" height="2.513" rx=".488" transform="rotate(-180 611.555 514.91)" fill="#3f3d56"/><rect x="704.379" y="595.588" width="4.188" height="2.513" rx=".488" transform="rotate(-180 603.178 514.91)" fill="#3f3d56"/><rect x="830.133" y="599.777" width="4.188" height="2.513" rx=".488" transform="rotate(-180 728.932 519.098)" fill="#3f3d56"/><rect x="821.756" y="599.777" width="4.188" height="2.513" rx=".488" transform="rotate(-180 720.555 519.098)" fill="#3f3d56"/><rect x="813.379" y="599.777" width="4.188" height="2.513" rx=".488" transform="rotate(-180 712.178 519.098)" fill="#3f3d56"/><rect x="805.002" y="599.777" width="4.188" height="2.513" rx=".488" transform="rotate(-180 703.801 519.098)" fill="#3f3d56"/><rect x="796.625" y="599.777" width="4.188" height="2.513" rx=".488" transform="rotate(-180 695.424 519.098)" fill="#3f3d56"/><rect x="788.248" y="599.777" width="4.188" height="2.513" rx=".488" transform="rotate(-180 687.047 519.098)" fill="#3f3d56"/><rect x="779.871" y="599.777" width="4.188" height="2.513" rx=".488" transform="rotate(-180 678.67 519.098)" fill="#3f3d56"/><rect x="771.494" y="599.777" width="4.188" height="2.513" rx=".488" transform="rotate(-180 670.293 519.098)" fill="#3f3d56"/><rect x="763.117" y="599.777" width="4.188" height="2.513" rx=".488" transform="rotate(-180 661.916 519.098)" fill="#3f3d56"/><rect x="754.74" y="599.777" width="4.188" height="2.513" rx=".488" transform="rotate(-180 653.54 519.098)" fill="#3f3d56"/><rect x="746.363" y="599.777" width="4.188" height="2.513" rx=".488" transform="rotate(-180 645.162 519.098)" fill="#3f3d56"/><rect x="737.986" y="599.777" width="4.188" height="2.513" rx=".488" transform="rotate(-180 636.785 519.098)" fill="#3f3d56"/><rect x="729.609" y="599.777" width="4.188" height="2.513" rx=".488" transform="rotate(-180 628.408 519.098)" fill="#3f3d56"/><rect x="721.232" y="599.777" width="4.188" height="2.513" rx=".488" transform="rotate(-180 620.031 519.098)" fill="#3f3d56"/><rect x="712.855" y="599.777" width="4.188" height="2.513" rx=".488" transform="rotate(-180 611.654 519.098)" fill="#3f3d56"/><rect x="704.478" y="599.777" width="4.188" height="2.513" rx=".488" transform="rotate(-180 603.277 519.098)" fill="#3f3d56"/><rect x="760.604" y="604.803" width="33.508" height="2.513" rx=".488" transform="rotate(-180 674.063 524.124)" fill="#3f3d56"/><rect x="515.631" y="358.737" width="5.966" height="3.122" rx="1.561" fill="#fff"/><rect x="548.154" y="358.737" width="5.966" height="3.122" rx="1.561" fill="#fff"/><rect x="557.369" y="358.737" width="5.966" height="3.122" rx="1.561" fill="#fff"/><rect x="524.477" y="358.477" width="20.796" height="3.122" rx="1.561" fill="#fff"/><rect x="567.841" y="358.477" width="20.796" height="3.122" rx="1.561" fill="#fff"/><rect x="524.304" y="365.784" width="5.966" height="3.122" rx="1.561" fill="#fff"/><rect x="556.827" y="365.784" width="5.966" height="3.122" rx="1.561" fill="#fff"/><rect x="566.042" y="365.784" width="5.966" height="3.122" rx="1.561" fill="#fff"/><rect x="533.15" y="365.523" width="20.796" height="3.122" rx="1.561" fill="#fff"/><rect x="576.514" y="365.523" width="20.796" height="3.122" rx="1.561" fill="#fff"/><rect x="532.977" y="372.83" width="5.966" height="3.122" rx="1.561" fill="#fff"/><rect x="565.5" y="372.83" width="5.966" height="3.122" rx="1.561" fill="#fff"/><rect x="574.715" y="372.83" width="5.966" height="3.122" rx="1.561" fill="#fff"/><rect x="541.823" y="372.57" width="20.796" height="3.122" rx="1.561" fill="#fff"/><rect x="585.187" y="372.57" width="20.796" height="3.122" rx="1.561" fill="#fff"/><rect x="541.649" y="379.877" width="5.966" height="3.122" rx="1.561" fill="#fff"/><rect x="574.172" y="379.877" width="5.966" height="3.122" rx="1.561" fill="#fff"/><rect x="583.387" y="379.877" width="5.966" height="3.122" rx="1.561" fill="#fff"/><rect x="550.496" y="379.617" width="20.796" height="3.122" rx="1.561" fill="#fff"/><rect x="548.154" y="407.898" width="5.966" height="3.122" rx="1.561" fill="#fff"/><rect x="557.369" y="407.898" width="5.966" height="3.122" rx="1.561" fill="#fff"/><rect x="567.841" y="408.158" width="20.796" height="3.122" rx="1.561" fill="#fff"/><rect x="515.631" y="407.898" width="5.966" height="3.122" rx="1.561" fill="#fff"/><rect x="524.477" y="408.158" width="20.796" height="3.122" rx="1.561" fill="#fff"/><rect x="524.304" y="400.851" width="5.966" height="3.122" rx="1.561" fill="#fff"/><rect x="556.827" y="400.851" width="5.966" height="3.122" rx="1.561" fill="#fff"/><rect x="566.042" y="400.851" width="5.966" height="3.122" rx="1.561" fill="#fff"/><rect x="533.15" y="401.111" width="20.796" height="3.122" rx="1.561" fill="#fff"/><rect x="532.977" y="393.804" width="5.966" height="3.122" rx="1.561" fill="#fff"/><rect x="565.5" y="393.804" width="5.966" height="3.122" rx="1.561" fill="#fff"/><rect x="574.715" y="393.804" width="5.966" height="3.122" rx="1.561" fill="#fff"/><rect x="541.823" y="394.064" width="20.796" height="3.122" rx="1.561" fill="#fff"/><rect x="541.649" y="386.758" width="5.966" height="3.122" rx="1.561" fill="#fff"/><rect x="574.172" y="386.758" width="5.966" height="3.122" rx="1.561" fill="#fff"/><rect x="583.387" y="386.758" width="5.966" height="3.122" rx="1.561" fill="#fff"/><rect x="550.496" y="387.018" width="20.796" height="3.122" rx="1.561" fill="#fff"/><path d="M191.69 337.48v102.56h71.85V337.48a3.448 3.448 0 0 0-2.43-3.3 3.175 3.175 0 0 0-1.03-.16h-64.92a3.463 3.463 0 0 0-3.47 3.46Zm28.04 35.24a7.67 7.67 0 0 1 15.34 0v11.9a7.67 7.67 0 0 1-15.34 0Z" fill="#2f2e41"/><path d="M191.47 436.76v9.89a1.946 1.946 0 0 0 1.93 1.94h68.43a1.94 1.94 0 0 0 1.93-1.94v-9.89ZM78.66 182.96v187.26a9.007 9.007 0 0 0 9 9h277.5a9.007 9.007 0 0 0 9-9V182.96a9.011 9.011 0 0 0-9-8.99H87.66a9.012 9.012 0 0 0-9 8.99Z" fill="#3f3d56"/><path d="M85.17 185.29v182.62a4.818 4.818 0 0 0 4.81 4.81h272.87a4.818 4.818 0 0 0 4.81-4.81V185.29a4.82 4.82 0 0 0-4.81-4.82H89.98a4.82 4.82 0 0 0-4.81 4.82Z" fill="#fff"/><path d="M135.81 447.92a2.948 2.948 0 0 0 2.32 1.11h162.34a2.987 2.987 0 0 0 2.92-3.6l-2.52-11.97a2.993 2.993 0 0 0-1.86-2.17 2.895 2.895 0 0 0-1.06-.2H140.64a2.894 2.894 0 0 0-1.06.2 2.992 2.992 0 0 0-1.86 2.17l-2.52 11.97a2.985 2.985 0 0 0 .61 2.49Z" fill="#2f2e41"/><path d="M353.994 205.628H98.671a1.016 1.016 0 0 1 0-2.031h255.323a1.016 1.016 0 0 1 0 2.03Z" fill="#3f3d56"/><ellipse cx="116.051" cy="192.33" rx="5.95" ry="6.083" fill="#3f3d56"/><ellipse cx="136.607" cy="192.33" rx="5.95" ry="6.083" fill="#3f3d56"/><ellipse cx="157.163" cy="192.33" rx="5.95" ry="6.083" fill="#3f3d56"/><path d="M341.616 187.75h-14.6a1.105 1.105 0 0 0 0 2.21h14.6a1.105 1.105 0 0 0 0-2.21ZM341.616 191.9h-14.6a1.105 1.105 0 0 0 0 2.21h14.6a1.105 1.105 0 0 0 0-2.21ZM341.616 196.05h-14.6a1.105 1.105 0 0 0 0 2.21h14.6a1.105 1.105 0 0 0 0-2.21Z" fill="#3f3d56"/><path d="M693.596 441.101a6.416 6.416 0 0 0 6.183 4.331l26.492-.682a6.329 6.329 0 0 0 5.98-4.657l3.75-40.087a9.794 9.794 0 0 0 4.237.871 9.661 9.661 0 1 0-.485-19.317 8.184 8.184 0 0 0-1.736.181 6.548 6.548 0 0 0-4.874-2.103l-40.75 1.052a5.853 5.853 0 0 0-1.006.125 6.365 6.365 0 0 0-4.873 8.265Zm43.173-43.817 2.668-9.552a6.506 6.506 0 0 0 .02-3.375c.13 0 .244-.062.373-.062a6.91 6.91 0 0 1 .324 13.817 6.505 6.505 0 0 1-3.385-.828Z" fill="#2f2e41"/><path d="M691.387 380.815c.869 4.964 10.63 8.454 22.366 7.847 10.793-.497 19.618-4.287 21.235-8.778a6.025 6.025 0 0 0-1.845-.246l-40.75 1.052a5.853 5.853 0 0 0-1.006.125Z" fill="#3f3d56"/><path d="M715.904 419.073a.497.497 0 0 0 .151-.066l5.753-3.766a.5.5 0 0 0 0-.836l-5.98-3.917a.5.5 0 1 0-.547.836l5.34 3.498-5.113 3.348a.5.5 0 0 0 .396.903ZM706.818 419.492a.5.5 0 0 0 .126-.918l-5.303-3.04 5.125-3.808a.5.5 0 1 0-.596-.802l-5.738 4.263a.5.5 0 0 0 .049.834l5.965 3.42a.5.5 0 0 0 .372.051ZM715.332 422.373a.482.482 0 0 0 .137-.058.5.5 0 0 0 .168-.687l-8.156-13.408a.5.5 0 0 0-.854.52l8.155 13.409a.5.5 0 0 0 .55.224Z" fill="#3aafa9"/><rect x="209.385" y="260.827" width="50.719" height="10.846" rx="3.264" fill="#3aafa9"/><rect x="183.626" y="282.519" width="102.236" height="10.846" rx="3.264" fill="#e6e6e6"/><rect x="183.626" y="304.21" width="102.236" height="10.846" rx="3.264" fill="#e6e6e6"/></svg>