<svg xmlns="http://www.w3.org/2000/svg" data-name="Layer 1" width="786.81995" height="572.25773" viewBox="0 0 786.81995 572.25773" xmlns:xlink="http://www.w3.org/1999/xlink">
  <path d="M206.59,598.16193a289.0029,289.0029,0,0,0,28.12,28.95l730.58,1a289.0029,289.0029,0,0,0,28.12-28.95Z" transform="translate(-206.59003 -163.87113)" fill="#3f3d56"></path>
  <path d="M702.01993,505.46245v85.704a4.12233,4.12233,0,0,0,4.11906,4.11907H833.14348a4.12232,4.12232,0,0,0,4.11907-4.11907v-85.704a4.12433,4.12433,0,0,0-4.11907-4.11452H706.139A4.12434,4.12434,0,0,0,702.01993,505.46245Z" transform="translate(-206.59003 -163.87113)" fill="#3f3d56"></path>
  <path d="M704.99939,506.52881V590.1092a2.20523,2.20523,0,0,0,2.20141,2.20141H832.08626a2.20522,2.20522,0,0,0,2.20141-2.20141V506.52881a2.20621,2.20621,0,0,0-2.20141-2.206H707.2008A2.20623,2.20623,0,0,0,704.99939,506.52881Z" transform="translate(-206.59003 -163.87113)" fill="#3aafa9"></path>
  <path d="M699.36376,607.881a2.46985,2.46985,0,0,0,1.94346.92984H837.29917a2.5024,2.5024,0,0,0,2.44606-3.0157l-2.111-10.02722a2.50694,2.50694,0,0,0-1.55811-1.81784,2.42467,2.42467,0,0,0-.888-.1675H703.40985a2.42446,2.42446,0,0,0-.888.1675,2.50671,2.50671,0,0,0-1.55811,1.81784l-2.111,10.02722A2.5005,2.5005,0,0,0,699.36376,607.881Z" transform="translate(-206.59003 -163.87113)" fill="#2f2e41"></path>
  <rect x="830.03379" y="595.58843" width="4.18849" height="2.51309" rx="0.48819" transform="translate(1457.66604 1029.81882) rotate(-180)" fill="#3f3d56"></rect>
  <rect x="821.65681" y="595.58843" width="4.18849" height="2.51309" rx="0.48819" transform="translate(1440.91208 1029.81882) rotate(-180)" fill="#3f3d56"></rect>
  <rect x="813.27982" y="595.58843" width="4.18849" height="2.51309" rx="0.48819" transform="translate(1424.15811 1029.81882) rotate(-180)" fill="#3f3d56"></rect>
  <rect x="804.90284" y="595.58843" width="4.18849" height="2.51309" rx="0.48819" transform="translate(1407.40415 1029.81882) rotate(-180)" fill="#3f3d56"></rect>
  <rect x="796.52586" y="595.58843" width="4.18849" height="2.51309" rx="0.48819" transform="translate(1390.65018 1029.81882) rotate(-180)" fill="#3f3d56"></rect>
  <rect x="788.14888" y="595.58843" width="4.18849" height="2.51309" rx="0.48819" transform="translate(1373.89622 1029.81882) rotate(-180)" fill="#3f3d56"></rect>
  <rect x="779.7719" y="595.58843" width="4.18849" height="2.51309" rx="0.48819" transform="translate(1357.14226 1029.81882) rotate(-180)" fill="#3f3d56"></rect>
  <rect x="771.39491" y="595.58843" width="4.18849" height="2.51309" rx="0.48819" transform="translate(1340.38829 1029.81882) rotate(-180)" fill="#3f3d56"></rect>
  <rect x="763.01793" y="595.58843" width="4.18849" height="2.51309" rx="0.48819" transform="translate(1323.63433 1029.81882) rotate(-180)" fill="#3f3d56"></rect>
  <rect x="754.64095" y="595.58843" width="4.18849" height="2.51309" rx="0.48819" transform="translate(1306.88037 1029.81882) rotate(-180)" fill="#3f3d56"></rect>
  <rect x="746.26397" y="595.58843" width="4.18849" height="2.51309" rx="0.48819" transform="translate(1290.1264 1029.81882) rotate(-180)" fill="#3f3d56"></rect>
  <rect x="737.88699" y="595.58843" width="4.18849" height="2.51309" rx="0.48819" transform="translate(1273.37244 1029.81882) rotate(-180)" fill="#3f3d56"></rect>
  <rect x="729.51001" y="595.58843" width="4.18849" height="2.51309" rx="0.48819" transform="translate(1256.61847 1029.81882) rotate(-180)" fill="#3f3d56"></rect>
  <rect x="721.13302" y="595.58843" width="4.18849" height="2.51309" rx="0.48819" transform="translate(1239.86451 1029.81882) rotate(-180)" fill="#3f3d56"></rect>
  <rect x="712.75604" y="595.58843" width="4.18849" height="2.51309" rx="0.48819" transform="translate(1223.11055 1029.81882) rotate(-180)" fill="#3f3d56"></rect>
  <rect x="704.37906" y="595.58843" width="4.18849" height="2.51309" rx="0.48819" transform="translate(1206.35658 1029.81882) rotate(-180)" fill="#3f3d56"></rect>
  <rect x="830.13277" y="599.77692" width="4.18849" height="2.51309" rx="0.48819" transform="translate(1457.86401 1038.1958) rotate(-180)" fill="#3f3d56"></rect>
  <rect x="821.75579" y="599.77692" width="4.18849" height="2.51309" rx="0.48819" transform="translate(1441.11005 1038.1958) rotate(-180)" fill="#3f3d56"></rect>
  <rect x="813.37881" y="599.77692" width="4.18849" height="2.51309" rx="0.48819" transform="translate(1424.35608 1038.1958) rotate(-180)" fill="#3f3d56"></rect>
  <rect x="805.00183" y="599.77692" width="4.18849" height="2.51309" rx="0.48819" transform="translate(1407.60212 1038.1958) rotate(-180)" fill="#3f3d56"></rect>
  <rect x="796.62485" y="599.77692" width="4.18849" height="2.51309" rx="0.48819" transform="translate(1390.84816 1038.1958) rotate(-180)" fill="#3f3d56"></rect>
  <rect x="788.24786" y="599.77692" width="4.18849" height="2.51309" rx="0.48819" transform="translate(1374.09419 1038.1958) rotate(-180)" fill="#3f3d56"></rect>
  <rect x="779.87088" y="599.77692" width="4.18849" height="2.51309" rx="0.48819" transform="translate(1357.34023 1038.1958) rotate(-180)" fill="#3f3d56"></rect>
  <rect x="771.4939" y="599.77692" width="4.18849" height="2.51309" rx="0.48819" transform="translate(1340.58627 1038.1958) rotate(-180)" fill="#3f3d56"></rect>
  <rect x="763.11692" y="599.77692" width="4.18849" height="2.51309" rx="0.48819" transform="translate(1323.8323 1038.1958) rotate(-180)" fill="#3f3d56"></rect>
  <rect x="754.73994" y="599.77692" width="4.18849" height="2.51309" rx="0.48819" transform="translate(1307.07834 1038.1958) rotate(-180)" fill="#3f3d56"></rect>
  <rect x="746.36295" y="599.77692" width="4.18849" height="2.51309" rx="0.48819" transform="translate(1290.32437 1038.1958) rotate(-180)" fill="#3f3d56"></rect>
  <rect x="737.98597" y="599.77692" width="4.18849" height="2.51309" rx="0.48819" transform="translate(1273.57041 1038.1958) rotate(-180)" fill="#3f3d56"></rect>
  <rect x="729.60899" y="599.77692" width="4.18849" height="2.51309" rx="0.48819" transform="translate(1256.81645 1038.1958) rotate(-180)" fill="#3f3d56"></rect>
  <rect x="721.23201" y="599.77692" width="4.18849" height="2.51309" rx="0.48819" transform="translate(1240.06248 1038.1958) rotate(-180)" fill="#3f3d56"></rect>
  <rect x="712.85503" y="599.77692" width="4.18849" height="2.51309" rx="0.48819" transform="translate(1223.30852 1038.1958) rotate(-180)" fill="#3f3d56"></rect>
  <rect x="704.47805" y="599.77692" width="4.18849" height="2.51309" rx="0.48819" transform="translate(1206.55456 1038.1958) rotate(-180)" fill="#3f3d56"></rect>
  <rect x="760.60382" y="604.80311" width="33.50793" height="2.51309" rx="0.48819" transform="translate(1348.12555 1048.24818) rotate(-180)" fill="#3f3d56"></rect>
  <rect x="515.63106" y="358.73707" width="5.96585" height="3.12216" rx="1.56108" fill="#fff"></rect>
  <rect x="548.15407" y="358.73707" width="5.96585" height="3.12216" rx="1.56108" fill="#fff"></rect>
  <rect x="557.36892" y="358.73707" width="5.96585" height="3.12216" rx="1.56108" fill="#fff"></rect>
  <rect x="524.47742" y="358.4768" width="20.79613" height="3.12216" rx="1.56108" fill="#fff"></rect>
  <rect x="567.84144" y="358.4768" width="20.79613" height="3.12216" rx="1.56108" fill="#fff"></rect>
  <rect x="524.30386" y="365.78373" width="5.96585" height="3.12216" rx="1.56108" fill="#fff"></rect>
  <rect x="556.82687" y="365.78373" width="5.96585" height="3.12216" rx="1.56108" fill="#fff"></rect>
  <rect x="566.04172" y="365.78373" width="5.96585" height="3.12216" rx="1.56108" fill="#fff"></rect>
  <rect x="533.15023" y="365.52345" width="20.79613" height="3.12216" rx="1.56108" fill="#fff"></rect>
  <rect x="576.51424" y="365.52345" width="20.79613" height="3.12216" rx="1.56108" fill="#fff"></rect>
  <rect x="532.97666" y="372.83038" width="5.96585" height="3.12216" rx="1.56108" fill="#fff"></rect>
  <rect x="565.49967" y="372.83038" width="5.96585" height="3.12216" rx="1.56108" fill="#fff"></rect>
  <rect x="574.71453" y="372.83038" width="5.96585" height="3.12216" rx="1.56108" fill="#fff"></rect>
  <rect x="541.82303" y="372.57011" width="20.79613" height="3.12216" rx="1.56108" fill="#fff"></rect>
  <rect x="585.18704" y="372.57011" width="20.79613" height="3.12216" rx="1.56108" fill="#fff"></rect>
  <rect x="541.64947" y="379.87703" width="5.96585" height="3.12216" rx="1.56108" fill="#fff"></rect>
  <rect x="574.17248" y="379.87703" width="5.96585" height="3.12216" rx="1.56108" fill="#fff"></rect>
  <rect x="583.38733" y="379.87703" width="5.96585" height="3.12216" rx="1.56108" fill="#fff"></rect>
  <rect x="550.49583" y="379.61676" width="20.79613" height="3.12216" rx="1.56108" fill="#fff"></rect>
  <rect x="548.15407" y="407.89751" width="5.96585" height="3.12216" rx="1.56108" fill="#fff"></rect>
  <rect x="557.36892" y="407.89751" width="5.96585" height="3.12216" rx="1.56108" fill="#fff"></rect>
  <rect x="567.84144" y="408.15779" width="20.79613" height="3.12216" rx="1.56108" fill="#fff"></rect>
  <rect x="515.63106" y="407.89751" width="5.96585" height="3.12216" rx="1.56108" fill="#fff"></rect>
  <rect x="524.47742" y="408.15779" width="20.79613" height="3.12216" rx="1.56108" fill="#fff"></rect>
  <rect x="524.30386" y="400.85086" width="5.96585" height="3.12216" rx="1.56108" fill="#fff"></rect>
  <rect x="556.82687" y="400.85086" width="5.96585" height="3.12216" rx="1.56108" fill="#fff"></rect>
  <rect x="566.04172" y="400.85086" width="5.96585" height="3.12216" rx="1.56108" fill="#fff"></rect>
  <rect x="533.15023" y="401.11113" width="20.79613" height="3.12216" rx="1.56108" fill="#fff"></rect>
  <rect x="532.97666" y="393.80421" width="5.96585" height="3.12216" rx="1.56108" fill="#fff"></rect>
  <rect x="565.49967" y="393.80421" width="5.96585" height="3.12216" rx="1.56108" fill="#fff"></rect>
  <rect x="574.71453" y="393.80421" width="5.96585" height="3.12216" rx="1.56108" fill="#fff"></rect>
  <rect x="541.82303" y="394.06448" width="20.79613" height="3.12216" rx="1.56108" fill="#fff"></rect>
  <rect x="541.64947" y="386.75755" width="5.96585" height="3.12216" rx="1.56108" fill="#fff"></rect>
  <rect x="574.17248" y="386.75755" width="5.96585" height="3.12216" rx="1.56108" fill="#fff"></rect>
  <rect x="583.38733" y="386.75755" width="5.96585" height="3.12216" rx="1.56108" fill="#fff"></rect>
  <rect x="550.49583" y="387.01783" width="20.79613" height="3.12216" rx="1.56108" fill="#fff"></rect>
  <path d="M398.28,501.35193v102.56h71.85v-102.56a3.448,3.448,0,0,0-2.43-3.3,3.1749,3.1749,0,0,0-1.03-.16H401.75A3.46328,3.46328,0,0,0,398.28,501.35193Zm28.04,35.24a7.67033,7.67033,0,0,1,15.34,0v11.9a7.6701,7.6701,0,0,1-15.34,0Z" transform="translate(-206.59003 -163.87113)" fill="#2f2e41"></path>
  <path d="M398.06006,600.632v9.89a1.94622,1.94622,0,0,0,1.93,1.94h68.43a1.93972,1.93972,0,0,0,1.93-1.94v-9.89Z" transform="translate(-206.59003 -163.87113)" fill="#3f3d56"></path>
  <path d="M285.25,346.832V534.09192a9.00714,9.00714,0,0,0,9,9h277.5a9.0071,9.0071,0,0,0,9-9V346.832a9.01147,9.01147,0,0,0-9-8.99H294.25A9.01151,9.01151,0,0,0,285.25,346.832Z" transform="translate(-206.59003 -163.87113)" fill="#3f3d56"></path>
  <path d="M291.76,349.16193v182.62a4.81833,4.81833,0,0,0,4.81,4.81H569.44a4.81829,4.81829,0,0,0,4.81-4.81v-182.62a4.82047,4.82047,0,0,0-4.81-4.82H296.57A4.82051,4.82051,0,0,0,291.76,349.16193Z" transform="translate(-206.59003 -163.87113)" fill="#fff"></path>
  <path d="M342.4,611.79193a2.9484,2.9484,0,0,0,2.32,1.11h162.34a2.98725,2.98725,0,0,0,2.92-3.6l-2.52-11.97a2.99264,2.99264,0,0,0-1.86-2.17,2.89454,2.89454,0,0,0-1.06-.19995H347.23a2.8943,2.8943,0,0,0-1.06.19995,2.99239,2.99239,0,0,0-1.86,2.17l-2.52,11.97A2.985,2.985,0,0,0,342.4,611.79193Z" transform="translate(-206.59003 -163.87113)" fill="#2f2e41"></path>
  <path d="M560.58451,369.49866H305.26115a1.0156,1.0156,0,0,1,0-2.0307H560.58451a1.0156,1.0156,0,0,1,0,2.0307Z" transform="translate(-206.59003 -163.87113)" fill="#3f3d56"></path>
  <ellipse cx="116.05131" cy="192.32963" rx="5.95043" ry="6.08304" fill="#3f3d56"></ellipse>
  <ellipse cx="136.60733" cy="192.32963" rx="5.95043" ry="6.08304" fill="#3f3d56"></ellipse>
  <ellipse cx="157.16336" cy="192.32963" rx="5.95043" ry="6.08304" fill="#3f3d56"></ellipse>
  <path d="M548.20637,351.622h-14.6a1.1053,1.1053,0,0,0,0,2.21h14.6a1.10511,1.10511,0,0,0,0-2.21Z" transform="translate(-206.59003 -163.87113)" fill="#3f3d56"></path>
  <path d="M548.20637,355.772h-14.6a1.10527,1.10527,0,0,0,0,2.21h14.6a1.10508,1.10508,0,0,0,0-2.21Z" transform="translate(-206.59003 -163.87113)" fill="#3f3d56"></path>
  <path d="M548.20637,359.92194h-14.6a1.1053,1.1053,0,0,0,0,2.21h14.6a1.10511,1.10511,0,0,0,0-2.21Z" transform="translate(-206.59003 -163.87113)" fill="#3f3d56"></path>
  <path d="M900.18575,604.97238a6.41621,6.41621,0,0,0,6.1831,4.331l26.49183-.68178a6.3285,6.3285,0,0,0,5.98085-4.657l3.74888-40.08721a9.79409,9.79409,0,0,0,4.23793.87079,9.66133,9.66133,0,1,0-.4849-19.31658,8.18393,8.18393,0,0,0-1.73618.18056,6.54764,6.54764,0,0,0-4.87405-2.103l-40.75051,1.05229a5.85294,5.85294,0,0,0-1.00519.1248,6.36455,6.36455,0,0,0-4.87318,8.26464Zm43.17345-43.81684,2.66764-9.55274a6.50649,6.50649,0,0,0,.02036-3.37458c.12944-.00034.24363-.06169.37307-.062a6.91049,6.91049,0,0,1,.32357,13.81714A6.50527,6.50527,0,0,1,943.3592,561.15554Z" transform="translate(-206.59003 -163.87113)" fill="#2f2e41"></path>
  <path d="M897.97751,544.68623c.86818,4.96412,10.62909,8.45387,22.36585,7.84729,10.79271-.49726,19.61745-4.287,21.23421-8.7785a6.02511,6.02511,0,0,0-1.84436-.24588l-40.75051,1.05229A5.85294,5.85294,0,0,0,897.97751,544.68623Z" transform="translate(-206.59003 -163.87113)" fill="#3f3d56"></path>
  <path d="M922.49438,582.94415a.49659.49659,0,0,0,.15091-.06642l5.75315-3.76566a.49923.49923,0,0,0,.00032-.83621l-5.97978-3.91667a.49972.49972,0,1,0-.54792.83585l5.34091,3.49818-5.114,3.34794a.49991.49991,0,0,0,.39637.903Z" transform="translate(-206.59003 -163.87113)" fill="#3aafa9"></path>
  <path d="M913.40762,583.36319a.5.5,0,0,0,.12608-.91842l-5.30306-3.04034,5.1256-3.80723a.49963.49963,0,1,0-.596-.80208l-5.73862,4.26265a.49951.49951,0,0,0,.04918.83476l5.96525,3.41968A.4997.4997,0,0,0,913.40762,583.36319Z" transform="translate(-206.59003 -163.87113)" fill="#3aafa9"></path>
  <path d="M921.92215,586.24416a.48233.48233,0,0,0,.137-.05785.49976.49976,0,0,0,.16752-.68714l-8.15548-13.40836a.50026.50026,0,0,0-.85442.52058l8.15548,13.40835A.50035.50035,0,0,0,921.92215,586.24416Z" transform="translate(-206.59003 -163.87113)" fill="#3aafa9"></path>
  <rect x="209.38454" y="260.82713" width="50.71916" height="10.8457" rx="3.26417" fill="#3aafa9"></rect>
  <rect x="183.62601" y="282.51852" width="102.23622" height="10.8457" rx="3.26417" fill="#e6e6e6"></rect>
  <rect x="183.62601" y="304.20991" width="102.23622" height="10.8457" rx="3.26417" fill="#e6e6e6"></rect>
  
</svg>