<svg xmlns="http://www.w3.org/2000/svg" data-name="Layer 1" width="786.82" height="572.258"><circle cx="458.321" cy="74.182" r="26.701" fill="#f2f2f2"/><path d="M665.447 497.152c39.688-30.229 58.644-81.026 46.777-129.482q-.442-1.806-.934-3.604c-7.867-28.764-27.331-56.1-55.7-65.291-23.82-7.717-49.82-1.783-74.67-4.852-48.78-6.024-86.6-45.494-113.21-86.82-26.611-41.325-47.062-87.583-82.422-121.723-58.285-56.276-153.362-68.392-225.627-31.76C87.397 90.25 41.365 171.52 43.328 252.513c1.963 80.995 50.046 158.432 119.875 199.517 25.652 15.093 55.321 25.786 84.848 22.044 25.62-3.246 48.9-17.012 74.399-21.1 40.09-6.425 79.927 11.701 114.602 32.824 34.676 21.123 68.17 46.16 107.575 55.953 38.261 9.508 85.663-17.822 120.82-44.6Z" fill="#f2f2f2"/></svg>