<svg id="svg2" version="1.0" width="575.43" height="675.688" xmlns:xlink="http://www.w3.org/1999/xlink" xmlns="http://www.w3.org/2000/svg"><defs id="defs6"><linearGradient id="linearGradient2155"><stop id="stop2149" offset="0" style="stop-color:#aeaeae;stop-opacity:1"/><stop style="stop-color:#ddd;stop-opacity:1" offset=".771" id="stop2151"/><stop id="stop2153" offset="1" style="stop-color:#f2f2f2;stop-opacity:1"/></linearGradient><linearGradient id="linearGradient2147"><stop style="stop-color:#939393;stop-opacity:1" offset="0" id="stop2141"/><stop id="stop2143" offset=".771" style="stop-color:#cecece;stop-opacity:1"/><stop style="stop-color:#e2e2e2;stop-opacity:1" offset="1" id="stop2145"/></linearGradient><linearGradient id="linearGradient2032"><stop style="stop-color:#b37e39;stop-opacity:1" offset="0" id="stop2026"/><stop id="stop2030" offset="1" style="stop-color:#dab80c;stop-opacity:1"/></linearGradient><linearGradient id="linearGradient1762"><stop id="stop1760" offset="0" style="stop-color:#c5c5c5;stop-opacity:1"/><stop style="stop-color:#f3f3f3;stop-opacity:1" offset=".771" id="stop1758"/><stop id="stop1756" offset="1" style="stop-color:white;stop-opacity:1"/></linearGradient><linearGradient id="linearGradient5320"><stop style="stop-color:#000;stop-opacity:1" offset="0" id="stop5316"/><stop style="stop-color:#000;stop-opacity:0" offset="1" id="stop5318"/></linearGradient><linearGradient id="linearGradient5498"><stop id="stop5500" style="stop-color:#fff;stop-opacity:1" offset="0"/><stop id="stop5502" style="stop-color:#fff;stop-opacity:0" offset="1"/></linearGradient><linearGradient id="linearGradient2893"><stop style="stop-color:white;stop-opacity:.313726" offset="0" id="stop2895"/><stop id="stop2897" offset=".19" style="stop-color:white;stop-opacity:.25098"/><stop style="stop-color:#6b6b6b;stop-opacity:.12549" offset=".6" id="stop2901"/><stop style="stop-color:black;stop-opacity:.12549" offset="1" id="stop2899"/></linearGradient><linearGradient id="linearGradient2885"><stop id="stop2887" offset="0" style="stop-color:#e1e1e1;stop-opacity:1"/><stop style="stop-color:#d2d2d2;stop-opacity:1" offset=".229" id="stop2891"/><stop id="stop2889" offset="1" style="stop-color:#c5c5c5;stop-opacity:1"/></linearGradient><linearGradient id="linearGradient2955"><stop id="stop2867" offset="0" style="stop-color:#fd0000;stop-opacity:1"/><stop style="stop-color:#e77275;stop-opacity:.658824" offset=".5" id="stop2873"/><stop style="stop-color:black;stop-opacity:.322917" offset="1" id="stop2959"/></linearGradient><linearGradient id="linearGradient4305"><stop style="stop-color:#000;stop-opacity:0" offset="0" id="stop4307"/><stop id="stop4313" offset=".604" style="stop-color:#000;stop-opacity:.0952381"/><stop style="stop-color:#000;stop-opacity:0" offset="1" id="stop4309"/></linearGradient><linearGradient xlink:href="#linearGradient5320" id="linearGradient5322" x1="-61.449" y1="439.305" x2="16.801" y2="439.305" gradientUnits="userSpaceOnUse"/><linearGradient xlink:href="#linearGradient4305" id="linearGradient1628" x1="205.959" y1="301.627" x2="256.34" y2="301.627" gradientUnits="userSpaceOnUse" spreadMethod="pad" gradientTransform="matrix(1.43208 0 0 1.19718 -125.962 -62.57)"/><linearGradient id="linearGradient2955-7"><stop id="stop2965" offset="0" style="stop-color:#fff;stop-opacity:0"/><stop id="stop2959-5" offset="1" style="stop-color:#000;stop-opacity:.645833"/></linearGradient><radialGradient cx="254.483" cy="265.479" r="365.911" fx="254.483" fy="265.479" id="radialGradient11987" xlink:href="#linearGradient5498" gradientUnits="userSpaceOnUse" gradientTransform="matrix(1.45771 0 0 1.49337 -113.828 -145.802)"/><radialGradient xlink:href="#linearGradient2955" id="radialGradient2961" cx="225.524" cy="218.901" fx="225.524" fy="218.901" r="300" gradientTransform="matrix(-.00042 2.18287 -1.88423 -.00036 615.597 -289.121)" gradientUnits="userSpaceOnUse"/><radialGradient xlink:href="#linearGradient2955" id="radialGradient1911" gradientUnits="userSpaceOnUse" gradientTransform="matrix(-.00042 2.18287 -1.88423 -.00036 615.597 -289.121)" cx="225.524" cy="218.901" fx="225.524" fy="218.901" r="300"/><radialGradient xlink:href="#linearGradient2955" id="radialGradient2865" gradientUnits="userSpaceOnUse" gradientTransform="matrix(0 1.74872 -1.59316 0 551.788 -191.29)" cx="225.524" cy="218.901" fx="225.524" fy="218.901" r="300"/><radialGradient xlink:href="#linearGradient2955" id="radialGradient2871" gradientUnits="userSpaceOnUse" gradientTransform="matrix(0 1.38624 -1.32329 0 -158.082 -109.54)" cx="225.524" cy="218.901" fx="225.524" fy="218.901" r="300"/><radialGradient gradientTransform="matrix(-.00042 2.18287 -1.88423 -.00036 615.597 -289.121)" gradientUnits="userSpaceOnUse" xlink:href="#linearGradient2955-7" id="radialGradient2961-3" fy="218.901" fx="225.524" r="300" cy="218.901" cx="225.524"/><radialGradient gradientTransform="matrix(-.00042 2.18287 -1.88423 -.00036 1395.597 -309.121)" gradientUnits="userSpaceOnUse" xlink:href="#linearGradient2955-7" id="radialGradient1911-9" fy="218.901" fx="225.524" r="300" cy="218.901" cx="225.524"/><radialGradient gradientTransform="matrix(0 2.34248 -2.29135 0 562.913 1323.77)" gradientUnits="userSpaceOnUse" xlink:href="#linearGradient2955-7" id="radialGradient1357" fy="153.928" fx="-483.508" r="300" cy="153.928" cx="-483.508"/><radialGradient gradientTransform="matrix(0 2.34248 -2.29135 0 562.913 1323.77)" gradientUnits="userSpaceOnUse" xlink:href="#linearGradient2955-7" id="radialGradient13767" fy="153.928" fx="-483.508" r="300" cy="153.928" cx="-483.508"/><radialGradient gradientTransform="matrix(0 2.34248 -2.29135 0 562.913 1323.77)" gradientUnits="userSpaceOnUse" xlink:href="#linearGradient2955-7" id="radialGradient14758" fy="153.928" fx="-483.508" r="300" cy="153.928" cx="-483.508"/><clipPath id="id4"><path d="M8159700 13361400c76220-139770 2197930-6492180 2413920-7190950 131560-425670 556320-1172960-490-1402360-436260-179740-619840 269840-761800 589250-1106150 2488850-2012480 5155690-3099990 7622910-28910 65570-97110 195000-60680 297570 67190 46290 104890 66260 104890 66260s-3620 10950-12370 32880c28470 14730 63950 26790 107920 35250 330330 63520 635230 25410 902040 88930s419260-127040 406560-139740z" id="path6931"/></clipPath><clipPath id="id3"><path d="M4588800 5351450c-400490 527930-650900 1296550-747280 1945300-130810 880410-102660 1704790 42700 2578040 70020 420790 229550 809470 367230 1209930-48390 152480-96800 304970-145190 457470-99620 27070-199260 54150-298910 81240-8540-21390-17080-42760-25630-64130-236410-473440-381250-982270-486800-1500670-209600-1029360-268920-2277450 25630-3296310 155630-538330 417890-1501900 794260-1898260 82550-31350 165100-62710 247670-94060 74010 76950 148030 153930 222060 230880 1420 116850 2840 233720 4260 350570z" id="path6928"/></clipPath><clipPath id="id2"><path d="M5925750 12594700c88620-183770 3632270-7531190 3694990-7656650 145090-290170 413980-120750 368450 152470-25400 152450-406560 1346710-406560 1346710l-2731530 6492170-198280 349880c-138440-95120-405130-303980-727070-684580z" id="path6925"/></clipPath><clipPath id="id1"><path d="M10705800 4543660c-62930-1513090-1278940-1075530-1950320-800920-638320 261090-1347180-281870-2415900-1578060-353750 344270-707510 688550-1061270 1032790 530760 1009660 1807290 2014250 2984400 1709450 751830-194670 1374360-722430 1490620-635890 71490 53210 47890 165800 47890 165800 345010 89210 598330 125970 904580 106830z" id="path6922"/></clipPath><clipPath id="id0"><path d="M5313740 3262710c-65270 65310-261520 266880-388790 452890-154530 225850-569070 720240-854340 1207610-1202300 2053910-1194340 5490930 198100 7445800 476060 668320 442260 547140 584920 856200 142640 309060 190180 427920 202070 594340 31740 444460-294550 155210-487370 261530-390520 215290 117220 590720 400650 493750 0 0-131090 282560 188010 205050s718910-223340 1039870-579940c320950-356610 392270-499260 463590-641910 71320-142640 95100-213960 95100-213960s-404160-213960-927190-867760c-523020-653770-939080-1212470-1283790-2543800-344730-1331360-202090-2115900-71340-2781570 130770-665670 701340-1747390 986640-2163440 268680-391840 621680-709850 661830-745520-224270-193200-424970-412500-591450-641570l-3410-4680c-9140-12640-18180-25290-27130-37980l-9700-13840-280-400c-9220-13230-18300-26470-27300-39750l-1770-2610c-53260-78850-102360-158520-146920-238440z" id="path6919"/></clipPath><clipPath id="clip"><path d="M0-200v800h300v-800Z" id="path10"/></clipPath><clipPath id="clip-6"><path id="path10-2" d="M0-200v800h300v-800Z"/></clipPath><clipPath id="SVGID_40_"><use xlink:href="#SVGID_39_" overflow="visible" id="use186" x="0" y="0" width="100%" height="100%"/></clipPath><path id="star" transform="scale(53)" d="M0-1 .588.809-.952-.309H.952L-.588.809z"/><path id="star-5" transform="scale(53)" d="M.588.809-.952-.309H.952L-.588.809 0-1z"/><path id="SVGID_39_" d="M0 0h212.6v70H0Z"/><filter style="color-interpolation-filters:srgb" id="filter13417"><feColorMatrix values="1.601 0 0 -0.277156 -0.3005 0 1.601 0 -0.277156 -0.3005 0 0 1.601 -0.277156 -0.3005 0 0 0 1 0" id="feColorMatrix13415"/></filter><g id="s"><g id="c"><path transform="rotate(18 3.157 -.5)" d="M0 0v1h.5Z" id="t"/><use height="540" width="810" y="0" x="0" id="use2144" transform="scale(-1 1)" xlink:href="#t"/></g><g id="a"><use height="540" width="810" y="0" x="0" id="use2147" transform="rotate(72)" xlink:href="#c"/><use height="540" width="810" y="0" x="0" id="use2149" transform="rotate(144)" xlink:href="#c"/></g><use height="540" width="810" y="0" x="0" id="use2151" transform="scale(-1 1)" xlink:href="#a"/></g></defs><g id="layer1" style="display:inline" transform="translate(-12.417 -10.706)"><g id="g191" transform="matrix(9.65487 0 0 9.65269 12.417 10.706)" style="fill:#003b71;fill-opacity:1"><defs id="defs184"><path id="path1445" d="M0 0h212.6v70H0Z"/></defs><clipPath id="clipPath1414"><use xlink:href="#SVGID_39_" overflow="visible" id="use1412" x="0" y="0" width="100%" height="100%"/></clipPath><path class="st19" d="M0 0v22.7C0 56.1 29.8 70 29.8 70s29.8-13.9 29.8-47.3V0" clip-path="url('#SVGID_40_')" id="path189" style="fill:#003a65;fill-opacity:1"/></g><path style="fill:#003b71;fill-opacity:1;stroke-width:1.32839px" d="M281.115 464.761c-9.403-1.733-18.232-8.503-23.157-17.757-3.987-7.491-3.95-21.784.076-29.414 8.501-16.112 28.02-22.326 44.26-14.09 33.896 17.19 16.273 68.164-21.18 61.261z" id="path2474" transform="translate(12.417 10.706)"/></g><g id="layer3" transform="translate(-.015)"><text xml:space="preserve" style="font-variant:normal;-inkscape-font-specification:&quot;Fira Sans&quot;;letter-spacing:5.24px;word-spacing:0;fill:#000;fill-opacity:1;stroke:none;font-family:Fira Sans;font-size:42.6667px;font-style:normal;font-weight:400;font-stretch:100%;line-height:1.25" x="227.688" y="381.182" id="text5469"/><text xml:space="preserve" style="font-variant:normal;-inkscape-font-specification:&quot;Fira Sans&quot;;letter-spacing:5.24px;word-spacing:0;fill:#000;fill-opacity:1;stroke:none;font-family:Fira Sans;font-size:42.6667px;font-style:normal;font-weight:400;font-stretch:100%;line-height:1.25" x="306" y="524.294" id="text1092"/><path style="color:#000;visibility:visible;fill:#fff;fill-opacity:1;fill-rule:nonzero;stroke:#000;stroke-width:0;stroke-linecap:butt;stroke-linejoin:miter;stroke-miterlimit:4;stroke-dasharray:none;stroke-dashoffset:0;stroke-opacity:1;marker:none;enable-background:accumulate;display:inline;overflow:visible" d="M288.475 249.039c-44.045 0-45.246 6.365-45.246 9.646 0 3.352 24.314 33.109 24.314 75.427 0 19.814-2.818 32.536-6.464 41.17a23.914 23.914 0 0 0-7.31-1.144c-13.213 0-23.965 10.702-23.965 23.916 0 2.494.384 4.897 1.094 7.16-8.67 3.723-21.497 6.662-41.716 6.662-42.319 0-72.075-24.314-75.427-24.314-3.281 0-9.646 1.202-9.646 45.247s6.365 45.246 9.646 45.246c3.352 0 33.108-24.314 75.427-24.314 20.22 0 33.046 2.94 41.716 6.663a23.856 23.856 0 0 0-1.094 7.16c0 13.214 10.752 23.916 23.966 23.916 2.55 0 5.005-.405 7.309-1.144 3.646 8.634 6.464 21.356 6.464 41.17 0 42.318-24.314 72.075-24.314 75.427 0 3.28 1.2 9.646 45.246 9.646 44.045 0 45.247-6.366 45.247-9.646 0-3.352-24.314-33.109-24.314-75.427 0-19.86 2.854-32.585 6.513-41.22 2.312.742 4.753 1.194 7.31 1.194 13.214 0 23.915-10.702 23.915-23.916 0-2.494-.386-4.897-1.094-7.16 8.67-3.723 21.497-6.663 41.717-6.663 42.318 0 72.075 24.314 75.427 24.314 3.28 0 9.646-1.2 9.646-45.246 0-44.045-6.366-45.247-9.646-45.247-3.352 0-33.109 24.314-75.427 24.314-20.22 0-33.047-2.94-41.717-6.662a23.947 23.947 0 0 0 1.094-7.16c0-13.214-10.701-23.916-23.916-23.916-2.556 0-4.997.451-7.309 1.193-3.659-8.634-6.513-21.359-6.513-41.219 0-42.318 24.314-72.075 24.314-75.427 0-3.28-1.202-9.646-45.247-9.646z" id="path16721"/><circle style="color:#000;visibility:visible;fill:#003a65;fill-opacity:1;fill-rule:nonzero;stroke:none;stroke-width:16.1377px;stroke-linecap:butt;stroke-linejoin:miter;stroke-miterlimit:4;stroke-dasharray:none;stroke-dashoffset:0;stroke-opacity:1;marker:none;enable-background:accumulate;display:inline;overflow:visible" id="path16725-3" cx="287.57" cy="432.501" r="33.845"/><rect style="opacity:1;fill:#fff;fill-opacity:1;fill-rule:nonzero;stroke:none;stroke-width:1.00397px;stroke-miterlimit:4;stroke-dasharray:none;stroke-opacity:1" id="rect1706" width="557.925" height="209.463" x="9.412" y="9.657" rx="0"/><g style="fill:#d5112d;fill-opacity:1;display:inline" transform="matrix(1.16956 0 0 1.12865 -607.038 -767.21)" id="layer1-5"><g id="g3366" transform="translate(1000.66 284.068) scale(2.35817)" style="fill:#d5112d;fill-opacity:1;stroke-width:.738183px;stroke-miterlimit:4;stroke-dasharray:none"><path id="path13429-8-0-88-5-69-9-3-3-1" d="M-156.796 220.07s-3.683-.023-5.158-.747c-1.604-.787-3.321-3.569-3.321-3.569s-4.061.553-5.928.214c-1.95-.354-4.743-2.224-4.743-2.224 1.865-.23 3.258-.466 5.064-1.69 0 0-3.595-.16-5.642-.82-1.783-.575-4.692-2.48-4.692-2.48 1.662-.347 3.46-.304 4.769-1.665 0 0-3.521.027-5.116-.462-1.593-.487-4.12-2.364-4.12-2.364 1.934-.14 3.774-.441 5.018-1.752 0 0-3.566.102-5.077-.395-2.085-.687-5.277-2.974-5.277-2.974 2.007-.127 4.003-.272 5.521-1.226l-1.128-1.92c-1.362-2.317-4.215-1.5-6.11-2.139-1.863-.627-2.906-2.337-3.008-3.296-.179-1.691.853-4.274 5.407-3.735-2.265-2.892.093-4.97 2.503-5.8 2.315-.8 4.36-.582 5.931 2.583 0 0 2.113-1.432 3.258-1.644 1.593-.295 3.39.148 3.956 1.397.233.514.318 1.59-.073 2.23-.618 1.016-1.978 1.711-2.423 3.195-.503 1.681 1.35 4.614 1.35 4.614s8.754 5.81 12.78 8.994c2.143 1.693 6.035 5.358 6.035 5.358l.215-.104h8.677l.775 12.267-9.443.155z" style="fill:#d5112d;fill-opacity:1;stroke:#fff;stroke-width:.738183px;stroke-linecap:butt;stroke-linejoin:miter;stroke-miterlimit:4;stroke-dasharray:none;stroke-opacity:1"/><path style="fill:#d5112d;fill-opacity:1;stroke:none;stroke-width:.738183px;stroke-miterlimit:4;stroke-dasharray:none;stroke-opacity:1" d="M-163.59 208.612c-4.092-7.123-11.19-10.984-18.776-14.787 4.55 7.143 10.608 11.49 18.776 14.787z" id="path4316-0-8-79-06-3-4-0-81-7"/><path style="fill:#d5112d;fill-opacity:1;stroke:#fff;stroke-width:.738183px;stroke-linecap:butt;stroke-linejoin:miter;stroke-miterlimit:4;stroke-dasharray:none;stroke-opacity:1" d="M-175.674 182.352c.304 1.212-.307 2.087-1.617 2.421-.651.166-1.404 0-2.19-.684.378-2.014.189-2.804-1.47-4.528 4.147.741 4.304 2.28 5.277 2.791z" id="path4318-6-3-4-84-7-9-62-5-7-0"/><path style="fill:#d5112d;fill-opacity:1;stroke:#fff;stroke-width:.738183px;stroke-linecap:butt;stroke-linejoin:miter;stroke-miterlimit:4;stroke-dasharray:none;stroke-opacity:1" d="M-187.233 181.413c.877.997.753 2.006-.275 2.765-.51.377-1.278.488-2.331.137-.651-1.964-1.214-2.618-3.575-3.611 4.14-.765 5.044.58 6.181.709z" id="path4318-6-3-4-0-58-0-3-3-2-6-0"/><path style="fill:#d5112d;fill-opacity:1;stroke:#fff;stroke-width:.738183px;stroke-linecap:butt;stroke-linejoin:miter;stroke-miterlimit:4;stroke-dasharray:none;stroke-opacity:1" d="M-193.798 188.275c1.293.6 1.682 1.56 1.126 2.608-.277.522-.92.89-2.051.94-1.57-1.558-2.406-1.956-5.047-2.033 3.383-2.142 4.874-1.234 5.972-1.515z" id="path4318-6-3-4-6-8-7-2-7-2-0-1"/><path id="path13429-0-9-7-32-4-4-8-7-7" d="M-106.802 225.702c-1.53-.374-3.397-2.06-5.019-2.052-1.708.01-2.913.808-3.772 1.881-.41.513.233 2.43.872 2.798l2.943 1.695s-1.842 1.773-1.981 2.772c-.122.867.398 1.563 1.14 2.248.968.893 1.205 1.238 2.746 1.426.92.113 3.1-.224 3.1-.224s-.052 1.422.486 2.079c.975 1.19 2.631 2.24 4.522 2.072 1.477-.13 1.957-.318 2.737-1.24.62-.73.495-2.597 1.5-3.366l4.088-3.129c1.765.895 1.718 2.23 1.499 3.605 0 0 2.623-1.389 3.404-2.384.813-1.036 1.134-3.484 1.134-3.484 1.661 1.256 2.211 2.378 1.855 3.878 0 0 2.67-1.398 3.53-2.384.968-1.11 1.802-3.51 1.802-3.51 1.216.99 1.472 2.4 1.008 4.125 0 0 2.985-1.676 3.783-3.026.63-1.067 1.008-2.934 1.008-2.934 3.627.22 5.969-1.101 6.128-2.47.124-1.062-1.31-2.51-4.23-2.93 0 0-1.078-1.349-1.486-2.346-.28-.686-.302-1.466 0-2.146.602-1.363 2.007-2.509 3.442-3.488 1.974-1.346 6.271-3.04 6.271-3.04l-1.257-5.274-14.632-1.878-16.173 3.34c2.948 1.134 9.55 5.008 9.011 6.477-.202.55-1.606 1.07-2.278 1.806-.494.542-.117 1.408.37 1.967.68.783 2.305.963 2.827 1.699.47.663.684 1.254.123 1.878-1.107 1.232-4.833 1.75-6.64 2.414-3.292 1.21-8.867 3.85-8.867 3.85-1.734.189-3.396-.314-4.994-.705z" style="fill:#d5112d;fill-opacity:1;stroke:#fff;stroke-width:.738183px;stroke-linecap:butt;stroke-linejoin:miter;stroke-miterlimit:4;stroke-dasharray:none;stroke-opacity:1"/><path id="path5660-0-1-8-7-2-53-2" d="M-101.108 228.29s4.065-1.793 6.224-2.687c3.404-1.41 9.354-1.781 10.85-4.706 0 0 .422-.649.284-1.55-.207-1.348-3.012-2.462-2.134-3.934l.711-1.192s2.984 1.076 3.842 1.908c.697.675.797 1.8 1.707 2.265.935.477 3.272.238 3.272.238l1.423 3.458s2.167-.015 2.988.834c.24.25.286.657.142.954-.228.471-1.544.591-2.117.76-1.12.328-2.846-.732-2.846-.732s.6 2.345.304 3.104c-.203.526-.996 1.431-.996 1.431-.629-.896-1.038-1.332-3.877-2.536 0 0-.343 1.999-1.105 3.254-.353.58-1.423 1.55-1.423 1.55s-.648-1.104-1.138-1.55c-.918-.837-3.59-1.228-3.59-1.228s-.527 2.453-1.278 3.76c-.277.481-.75 1.192-.75 1.192s-.513-1.126-.997-1.55c-.572-.503-2.134-1.073-2.134-1.073l-5.512 3.815s-.834 2.257-2.132 2.983c-.75.42-1.151.214-1.961-.12-.392-.161-.744-.48-.854-.834-.35-1.14.536-2.57.536-2.57s-2.965.975-4.916.51c-.742-.176-1.668-.665-1.707-1.311-.089-1.49 2.497-2.894 2.497-2.894s-2.92-.575-4.132-1.968c-.395-.455-.675-1.213-.284-1.67.45-.525 1.519-.484 2.276-.357 1.445.241 2.103 1.684 3.563 1.849z" style="fill:#d5112d;fill-opacity:1;stroke:none;stroke-width:.738183px;stroke-miterlimit:4;stroke-dasharray:none;stroke-opacity:1"/><path style="fill:#d5112d;fill-opacity:1;stroke:none;stroke-width:.738183px;stroke-miterlimit:4;stroke-dasharray:none;stroke-opacity:1" d="M-82.148 223.787c-7.164-.308-12.763 2.596-18.486 5.832 7.341.028 12.966-2.025 18.486-5.832z" id="path4316-5-4-4-3-8-5-6-3"/><path id="path4318-6-06-0-9-8-5-2-1" d="M-114.689 224.076c1.342.52 1.814 1.453 1.35 2.533-.231.537-.84.944-1.964 1.062-1.7-1.458-2.57-1.804-5.21-1.72 3.188-2.342 4.754-1.528 5.824-1.875z" style="fill:#d5112d;fill-opacity:1;stroke:#fff;stroke-width:.738183px;stroke-linecap:butt;stroke-linejoin:miter;stroke-miterlimit:4;stroke-dasharray:none;stroke-opacity:1"/><path id="path4318-6-3-53-08-5-0-7-5-1" d="M-113.381 232.51c1.478-.039 2.398.62 2.56 1.759.08.566-.247 1.158-1.19 1.686-2.298-.666-3.26-.65-5.577.415 1.6-3.29 3.435-3.148 4.207-3.86z" style="fill:#d5112d;fill-opacity:1;stroke:#fff;stroke-width:.738183px;stroke-linecap:butt;stroke-linejoin:miter;stroke-miterlimit:4;stroke-dasharray:none;stroke-opacity:1"/><path id="path4318-6-30-8-7-5-2-4-7-9" d="M-105.464 238.399c1.239-.677 2.433-.515 3.279.388.42.449.508 1.097.03 1.958-2.378.432-3.189.866-4.507 2.784-.674-3.507.98-4.186 1.198-5.13z" style="fill:#d5112d;fill-opacity:1;stroke:#fff;stroke-width:.738183px;stroke-linecap:butt;stroke-linejoin:miter;stroke-miterlimit:4;stroke-dasharray:none;stroke-opacity:1"/><path id="path13429-5-67-45-7-8-0-0-1" d="M-49.207 179.948c2.472-.228 7.549-1.073 9.253-2.468l3.022-2.468c-.472 4.103-2.982 6.762-8.31 8.565-4.25 1.438-9.157 1.77-13.786 1.451-2.914-.2-8.31-1.451-8.31-1.451 2.96 2.658 1.456 4.534-2.265 5.806 0 0 .551-2.546-.567-2.903-2.41-.771-5.13.234-7.69 1.413-1.89.872-4.754 1.278-6.683 1.26-3.213-.029-4.994-.06-7.999-.935-1.812-.528-4.956-2.541-6.288-2.341-2.875.432-6.507.674-8.143 2.542-.568.65-.498 1.666 0 2.348 1.12 1.53 3.632 2.33 5.853 2.738 6.605 1.216 11.995 1.208 18.513.436 6.718-.796 14.563-2.39 21.28-3.351 6.657-.954 15.24-2.755 20.286-3.625 8.917-1.54 12.917-1.75 19.59-1.67 11.685.144 15.511 4.913 15.155 10.118-.365 5.347-7.407 7.769-13.436 9.269-10.6 2.637-25.156 1.135-34.303.955 0 0 3.067 1.974 4.458 2.876 1.63 1.057 2.444 3.268 4.457 3.807 2.762.74 6.986-.727 9.906-.856 4.083-.182 11.02.19 11.02.19 1.062-.831 1.75-1.409 2.854-1.657.792-.18 2.038-.189 2.673-.002 1.257.369 2.103 1.505 1.576 3.621 0 0 .87.938 2.2 1.154 1.408.23 3.052.027 3.854.222 1.323.32 3.466 1.332 3.466 1.332s-2.272.553-3.217.996c-.646.302-1.51 1.305-1.51 1.305s3.112.041 4.412.484c1.392.475 2.678 1.817 2.678 1.817s-1.874-.102-2.766.33c-.683.332-1.803 1.244-1.803 1.244s3.642-.228 4.884.605c1.1.738 2.363 2.06 2.363 2.06s-1.965-.033-2.895.173c-.605.134-1.674.674-1.674.674s2.518 1.009 3.624 2.18c.883.935 1.103 3.027 1.103 3.027s-1.483-.854-2.394-1.168c-.57-.196-1.86-.164-1.86-.164l.59 4.295c.145 1.056 2.071 2.2 2.415 3.017.433 1.03.325 1.417-.453 2.32-.996 1.156-3.052 1.393-4.83 1.16-.981-.128-2.36-1.08-2.36-1.08s-1.004 1.426-1.68 1.863c-1.134.732-1.621.639-3.1.595-1.134-.033-2.144-.197-2.929-.827-.903-.726-1.53-2.897-1.53-2.897l-3.486.53c-.758.115-3.053-.773-3.309-1.333-.536-1.173-.588-2.359.453-3.31.989-.904 3.722-.951 5.115-1.45 1.785-.637 3.5-2.482 3.5-2.482s-5.826-3.445-8.346-5.587c-1.385-1.178-3.768-3.932-3.768-3.932s-7.43 1.72-10.23 2.07c-6.909.861-14.268 0-14.268 0-10.56 0-17.587-12.467-27.189-15.313-2.93-.868-4.31-.733-7.375-.207-11.127 1.908-23.005 12.746-34.029 14.981-4.525.918-13.998 1.242-13.998 1.242s-1.551 2.568-3.018 3.3c-1.595.798-5.6.85-5.6.85s-1.025 3.07-2.198 4.238c-1.226 1.218-4.595 2.4-4.595 2.4.498-1.4.794-2.473.09-4.243 0 0-1.674 2.45-3.303 3.61-1.418 1.01-4.878 2.258-4.878 2.258.278-1.306 1.071-2.546 0-4.025 0 0-1.424 2.475-2.662 3.39-1.236.912-4.504 1.906-4.504 1.906.633-1.412 1.038-2.825 0-4.237 0 0-1.354 2.538-2.568 3.39-1.675 1.176-5.704 2.464-5.704 2.464.68-1.457 1.333-2.914.83-4.371l-2.74-.003c-3.309-.005-3.52 2.33-5.06 3.392-1.513 1.044-3.97 1.068-5.148.742-2.077-.573-3.924-2.59-1.402-5.555-4.362.39-6.635-1.892-6.624-3.923.01-1.95.86-3.673 5.259-3.464 0 0-.569-1.69-.347-2.579.309-1.237 1.576-2.311 3.29-2.19.706.049 2.014.434 2.613.972.947.852 1.208 2.092 2.782 3.017 1.783 1.047 6.023.962 6.023.962s8.24-3.724 13.675-5.227c2.892-.8 11.105-2.008 11.105-2.008l.257-16.852c4.936.254 2.813.29 6.987.186 5.995-.15 21.745 1.88 21.745 1.88l11.214-.64s18.706-2.358 27.605-3.095c4.483-.371 9.013-.638 13.515-.442 6.78.296 12.604 1.7 18.978 1.99 5.359.242 9.019.699 14.377.441 7.65-.367 21.325.064 25.67-5.713 1.128-1.5.549-3.553-1.134-4.708-2.22-1.524-3.8-2.097-6.762-1.574-1.562.277-3.548 1.193-3.743 2.32-.105.612.027 1.376.695 2.098 1.148 1.241 2.445 1.615 2.445 1.615s-3.319.373-4.83-.557c-1.59-.978-3.019-4.083-3.019-4.083-.747.792-1.297 1.661-1.171 2.79.108.972-.005 1.58 1.413 3.057 0 0-3.511-.189-5.192-1.671-1.13-.996-2.053-3.99-2.053-3.99-.996.755-1.604 1.979-1.646 2.88-.062 1.304.673 1.875 1.042 3.245 0 0-3.46-.782-4.83-2.228-1.062-1.122-1.629-4.068-1.629-4.068-3.98.762-11.58 1.84-19.855 3.207-5.83.962-14.733 2.44-21.025 3.049-10.806 1.044-18.673.503-25.316-1.664-3.457-1.127-5.014-2.212-5.906-4.773-.505-1.454.24-3.513 1.956-5.116 2.392-2.235 6.547-3.908 11.188-4.792 0 0 12.292-2.537 19.451-3.048 11.479-.82 16.147.413 20.944.877 3.117.302 6.471-.193 7.453-1.094.826-.758 2.193-1.575.351-3.402 0 0 2.333.035 3.882 2.237.633.9-.147 2.978-.147 2.978z" style="fill:#d5112d;fill-opacity:1;stroke:#fff;stroke-width:.738183px;stroke-miterlimit:4;stroke-dasharray:none;stroke-opacity:1"/><path id="path13429-5-2-4-55-2-7-1-0-4-8" d="M-4.709 235.326c.434 1.03 1.413 3.29.635 4.193-.996 1.157-3.052 1.393-4.83 1.16-.981-.128-2.36-1.08-2.36-1.08s-1.004 1.426-1.68 1.863c-1.134.732-1.621.902-3.1.858a4.904 4.904 0 0 1-2.929-1.09c-.903-.726-1.53-2.897-1.53-2.897l-3.486.53c-.758.115-3.053-.773-3.309-1.333-.536-1.173-.588-2.359.453-3.31.989-.904 3.722-.951 5.115-1.449 1.785-.638 3.5-2.483 3.5-2.483s-5.826-3.445-8.346-5.587c-1.385-1.178-3.768-3.932-3.768-3.932s-7.43 1.72-10.23 2.07c-6.909.861-9.512 0-14.268 0-10.56 0-17.587-12.467-27.189-15.313-2.93-.868-4.31-.732-7.375-.207-11.127 1.908-23.005 12.746-34.029 14.981-4.525.918-13.998 1.242-13.998 1.242s-1.551 2.568-3.018 3.301c-1.595.797-5.6.85-5.6.85s-1.025 3.07-2.198 4.237c-1.226 1.218-4.595 2.4-4.595 2.4.498-1.4.794-2.473.09-4.243 0 0-1.674 2.45-3.303 3.61-1.418 1.01-4.878 2.258-4.878 2.258.278-1.306 1.071-2.546 0-4.025 0 0-1.424 2.475-2.662 3.39-1.236.912-4.504 1.906-4.504 1.906.633-1.412 1.038-2.825 0-4.237 0 0-1.354 2.538-2.568 3.39-1.675 1.176-5.704 2.464-5.704 2.464.68-1.457 1.333-2.914.83-4.371l-2.74-.003c-3.309-.005-3.52 2.33-5.06 3.392-1.513 1.044-3.97 1.068-5.148.742-2.077-.573-3.924-2.59-1.402-5.555-4.362.39-6.635-1.892-6.624-3.923.01-1.95.86-3.673 5.259-3.464 0 0-.569-1.69-.347-2.579.309-1.237 2.521-.901 3.29-2.19.068-.114 1.822 1.069 1.45 2.565-.256 1.028-1.877 1.838-2.157 2.236-.616.873.748 1.853.748 1.853s-2.947-.933-4.736-.49c-.646.16 1.695-.043 1.925 2.021.244 2.192-1.736 1.781-.683 1.954 1.824.3 5.657.21 5.657.21.092 0-3.705 3.732-2.579 3.252.738-.315 1.766-.024 2.302.462.475.432.98 1.206.315 2.04-.434.544.688.268 1.21-.21 2.429-2.218 3.846-4.712 7.487-5.196 1.108-.147 2.749.128 3.577.767.886.683.915 2.927.915 2.927s1.418-1.245 1.997-1.951c.926-1.132 2.33-3.625 2.33-3.625s2.041 1.907 2.828 2.997c.282.392.665 1.255.665 1.255s1.46-1.659 1.997-2.58c.631-1.082 1.414-3.415 1.414-3.415s1.937 1.89 2.579 2.998c.352.608.665 1.951.665 1.951s2.355-2.24 3.161-3.555c.626-1.02 1.248-3.276 1.248-3.276s2.32 1.442 3.078 2.44c.519.681.915 2.3.915 2.3s1.537-2.049 1.747-3.137c.231-1.192.167-3.415.167-3.415s3.966 1.499 5.74.836c2.003-.748 3.494-4.67 3.494-4.67s10.984-.24 16.117-1.68c3.36-.944 7.885-3.196 11.034-4.557 0 0 11.133-6.4 18.236-8.515 2.84-.845 6.522-1.55 9.518-1.272 4.12.382 7.01 2.56 10.485 4.451 5.46 2.973 9.168 8.355 15.14 10.53 3.35 1.22 8.494 1.322 12.143 1.207 6.12-.192 17.064-2.57 17.064-2.57s2.67 3.923 4.896 5.81c2.771 2.35 8.834 5.898 8.834 5.898s-1.89 2.614-3.45 3.417c-1.706.878-3.621 1.157-5.412 1.906-.335.14 1.337-.08 1.602.737.226.698-.325 1.263.516 1.103 1.413-.27 3.372-.92 3.372-.92s-.326 1.456.3 2.324c2-.623 4.265-.379 4.396 2.028.854-.341.51-.988.95-1.46l.863-2.498s.448 1.249 2.105 1.972c1.143-1.999 4.735-1.988 5.818.156-.43-.3-.377-3.177-.377-3.177z" style="fill:#d5112d;fill-opacity:1;stroke:#fff;stroke-width:.738183px;stroke-miterlimit:4;stroke-dasharray:none;stroke-opacity:1"/><path id="path5808-0-90-9-0-6-7-8" d="M-153.68 220.208s1.614 2.547 3.687 3.582c.93.464 2.929 1.186 2.929 1.186l.409-2.665s1.855-.595 3.01-1.122c1.155-.526 3.847-2.102 3.847-2.102l.501 2.383s6.2-2.547 8.697-4.485c1.67-1.295 3.288-2.818 4.014-4.625.837-2.08.168-6.586.168-6.586l-16.923.498-3.849 12.286-6.49 1.65z" style="fill:#d5112d;fill-opacity:1;stroke:#fff;stroke-width:.738183px;stroke-miterlimit:4;stroke-dasharray:none;stroke-opacity:1"/><path id="path13429-5-2-7-52-9-8-1-6-8-9" d="M-6.626 229.887s1.29-.032 1.86.164c.911.314 2.394 1.168 2.394 1.168s-.22-2.092-1.103-3.027c-1.106-1.171-3.624-2.18-3.624-2.18s1.069-.54 1.674-.674c.93-.206 2.895-.174 2.895-.174s-1.264-1.321-2.363-2.059c-1.242-.833-4.884-.605-4.884-.605s1.12-.912 1.803-1.243c.892-.433 2.766-.331 2.766-.331s-1.286-1.342-2.678-1.817c-1.3-.443-4.412-.484-4.412-.484s.864-1.003 1.51-1.305c.945-.443 3.217-.996 3.217-.996s-2.143-1.011-3.466-1.332c-.802-.195-2.446.007-3.854-.222-1.33-.216-2.2-1.154-2.2-1.154.527-2.116-.319-3.252-1.576-3.621-.635-.187-1.881-.177-2.673.002-1.104.248-1.792.826-2.854 1.657 0 0-6.937-.372-11.02-.19-2.92.13-7.144 1.596-9.906.856-2.013-.54-2.828-2.75-4.457-3.807-1.391-.902-4.458-2.876-4.458-2.876-3.402-3.418-3.692-3.885-9.608-5.527-3.79-.578-2.974-.284-7.152-.466-4.501-.196-9.031.07-13.514.442-8.9.737-27.605 3.095-27.605 3.095l-11.214.64s-15.75-2.03-21.745-1.88c-4.174.104-2.052.069-6.987-.186l-.043 2.84s9.658 1.76 14.827 2.186c4.995.412 9.584.301 14.601.178 9.38-.23 19.439-3.168 28.765-4.04 7.469-.698 15.728-1.71 22.524-.835 5.708.736 7.898 2.314 12.822 4.844 4.14 2.128 8.34 7.85 13.888 7.85 0 0 3.136-.134 5.182-.334 2.577-.252 4.39-.998 6.976-1.169 3.521-.232 8.363.258 8.363.258 2.281-2.227 3.448-2.272 4.103-1.988 1.443.624 1.64 2.005.34 3.403 1.435.757 2.352 1.999 6.72 1.822-1.923 1.173-2.504 1.757-3.295 3.2 1.64-.413 3.358-.019 5.812.523-1.736 1.137-2.215 2.269-2.815 3.27 1.63-.163 2.848.11 5.776.491-1.67.67-2.927.989-3.207 1.918 1.908.833 1.73.505 4.506 2.308-1.763.175-2.84.177-3.528 1.126l3.364 4.1z" style="fill:#d5112d;fill-opacity:1;stroke:#fff;stroke-width:.738183px;stroke-miterlimit:4;stroke-dasharray:none;stroke-opacity:1"/><path id="path4414-07-8-3-4-1-4-9" d="m-56.4 205.333 12.574.543 10.5.109h6.611c7.603-1.285 16.459-2.689 20.093-9.125l.13-4.779c-.33 2.842-1.752 5.071-3.984 6.756-10.582 7.989-34.202 5.32-45.535 2.586l-7.907-.87z" style="fill:#d5112d;fill-opacity:1;stroke:#fff;stroke-width:.738183px;stroke-miterlimit:4;stroke-dasharray:none;stroke-opacity:1"/><path id="path5188-7-0-0-4-3-1-3" d="M-40.7 189.562c-8.324.572-29.254 5.392-45.34 6.513-8.592.6-17.974.204-23.388-2.47-2.386-1.179-4.002-2.8-4.44-4.974l-.796 2.538 2.55 3.338 5.736 2.27 10.837 1.736 11.793-.801 6.693-.534 35.22-5.609z" style="fill:#d5112d;fill-opacity:1;stroke:#fff;stroke-width:.738183px;stroke-miterlimit:4;stroke-dasharray:none;stroke-opacity:1"/><path id="path5190-97-5-9-7-2-1-5" d="M-40.717 189.386c.187 2.76.918 3.925 1.666 5.04.952-1.74 1.735-3.84 4.726-5.58.887 1.92 1.554 4.2 3.008 6.12.711-2.175.849-4.823 3.438-6.66.939 1.813 1.781 4.03 2.847 5.31-.023-1.38-.199-3.03 1.88-4.41 8.128-3.64 18.98 3.074 11.118 7.696l.108.045.698-2.025-.752-2.52-2.47-1.621-3.17-.855-4.082.675-1.773 1.53.538 1.89 2.685 2.116-4.35-.27-1.934-1.125-1.665-2.97-1.02 1.664.106 2.25 1.343 1.711-3.276-.585-2.417-1.395-1.773-3.51-1.235 1.214-.484 1.89 1.236 2.791-3.17-.99-2.363-2.07-.805-3.33-4.727.944c1.74-.94-1.651-.964 6.07-2.97z" style="fill:#d5112d;fill-opacity:1;stroke:#fff;stroke-width:.738183px;stroke-miterlimit:4;stroke-dasharray:none;stroke-opacity:1"/><path id="path5192-53-3-7-4-5-6-1" d="m-98.42 185.51 7.222 2.931 7.221.757 4.514-.662 4.965-2.08 3.95-.19 1.128 1.23.113 2.175 2.595-1.797.677-1.513-.79-2.647 5.304 1.134 6.77.379 6.996-.946 6.207-2.08 3.046-2.648 1.58-4.538s-3.338 3.931-5.755 5.106c-3.046 1.48-6.772 2.298-10.268 2.647-3.4.34-6.867-.253-10.269-.567-3.946-.365-9.817-2.175-9.817-2.175 1.191 1.45 2.397 2.9 2.708 4.35 0 0-3.714-.685-5.67-.238-1.544.352-4.471 1.34-5.964 1.82-2.317.747-6.038-.013-8.503-.259-2.546-.254-3.44-1.196-5.73-.686l-2.23.497z" style="fill:#d5112d;fill-opacity:1;stroke:#fff;stroke-width:.738183px;stroke-miterlimit:4;stroke-dasharray:none;stroke-opacity:1"/><path id="path5194-9-5-1-1-8-16-6" d="M-104.483 182.445s3.706.466 5.565.389c5.534-.23 10.855-1.916 16.348-2.526 3.306-.367 6.638-.767 9.971-.68 4.332.112 8.539 1.417 12.87 1.554 2.284.073 4.78.44 6.84-.388 1.184-.476 2.364-1.359 2.667-2.429.325-1.147-1.16-3.4-1.16-3.4l.117.097-.58 1.749-2.667 1.845-3.13.68-5.218-.388-7.884-.777h-8.811l-9.856.971-9.623 1.652z" style="fill:#d5112d;fill-opacity:1;stroke:#fff;stroke-width:.738183px;stroke-miterlimit:4;stroke-dasharray:none;stroke-opacity:1"/><path id="path5196-9-5-8-72-5-6-0" d="M-48.594 188.134c15.689 1.935 34.577-6.285 41.649 4.925l-.168-.14.504-1.83-3.527-3.237-4.702-2.11-8.733-.845-11.42.985z" style="fill:#d5112d;fill-opacity:1;stroke:#fff;stroke-width:.738183px;stroke-miterlimit:4;stroke-dasharray:none;stroke-opacity:1"/><path id="path5465-4-4-5-6-0-9-8" d="M-185.563 221.695s.598 3.58 2.072 4.71c1.809 1.388 7.102 1.612 7.102 1.612s7.688-3.77 11.836-5.083c3.38-1.069 6.988-1.538 10.504-2.231 1.13-.223 3.403-.62 3.403-.62s.606-3.224.444-4.835c-.154-1.528-1.331-4.463-1.331-4.463l-.888 7.81-9.321 1.612-8.286 2.603-6.51 3.224-6.51-1.24z" style="fill:#d5112d;fill-opacity:1;stroke:#fff;stroke-width:.738183px;stroke-miterlimit:4;stroke-dasharray:none;stroke-opacity:1"/><path id="path13429-5-2-91-5-0-12-5-4-4" d="M-49.207 179.948c2.472-.228 7.549-1.073 9.253-2.468l3.022-2.468c-.472 4.103-2.982 6.762-8.31 8.565-4.25 1.438-9.157 1.77-13.786 1.451-2.914-.2-8.31-1.451-8.31-1.451 2.96 2.658 1.456 4.534-2.265 5.806 0 0 .551-2.546-.567-2.903-2.41-.771-5.13.233-7.69 1.413-1.89.872-4.754 1.278-6.683 1.26-3.213-.03-4.994-.06-7.999-.935-1.812-.528-4.956-2.541-6.288-2.341-2.875.431-6.507.674-8.143 2.542-.568.65-.498 1.666 0 2.348 1.12 1.53 3.632 2.33 5.853 2.738 6.605 1.216 11.995 1.208 18.513.436 6.718-.796 14.563-2.39 21.28-3.351 6.657-.954 15.24-2.755 20.286-3.626 8.917-1.538 12.917-1.75 19.59-1.668 11.685.143 15.511 4.912 15.155 10.117-.365 5.347-7.407 7.769-13.436 9.269-10.6 2.637-25.156 1.135-34.303.955 0 0 3.067 1.974 4.458 2.876 1.63 1.057 2.444 3.268 4.457 3.807 2.762.74 6.986-.727 9.906-.856 4.083-.182 11.02.19 11.02.19 1.062-.831 1.75-1.409 2.854-1.657.792-.18 2.038-.189 2.673-.002 1.257.369 2.103 1.505 1.576 3.621 0 0 .87.938 2.2 1.154 1.408.23 3.052.027 3.854.222 1.323.32 3.466 1.332 3.466 1.332s-2.272.553-3.217.995c-.646.303-1.51 1.306-1.51 1.306s3.112.041 4.412.484c1.392.475 2.678 1.817 2.678 1.817s-1.874-.102-2.766.33c-.683.332-1.803 1.244-1.803 1.244s3.642-.228 4.884.605c1.1.738 2.363 2.059 2.363 2.059s-1.965-.032-2.895.174c-.605.134-1.674.674-1.674.674s2.518 1.009 3.624 2.18c.883.935 1.103 3.027 1.103 3.027s-1.483-.854-2.394-1.168c-.57-.196-1.86-.164-1.86-.164l.59 4.295c.145 1.056 2.071 2.2 2.415 3.017.433 1.03.325 1.417-.453 2.32-.996 1.156-3.052 1.393-4.83 1.16-.981-.128-2.36-1.08-2.36-1.08s-1.004 1.426-1.68 1.863c-1.134.732-1.68.934-3.159.89-1.134-.033-2.085-.492-2.87-1.122-.903-.726-1.53-2.897-1.53-2.897l-3.486.53c-.758.115-3.053-.773-3.309-1.333-.536-1.173-.588-2.359.453-3.31.989-.904 3.722-.951 5.115-1.45 1.785-.637 3.5-2.482 3.5-2.482s-5.826-3.445-8.346-5.587c-1.385-1.178-3.768-3.932-3.768-3.932s-7.43 1.72-10.23 2.07c-6.909.861-14.268 0-14.268 0-10.56 0-17.587-12.467-27.189-15.313-2.93-.869-4.31-.733-7.375-.207-11.127 1.908-23.005 12.746-34.029 14.981-4.525.918-13.998 1.242-13.998 1.242s-1.551 2.568-3.018 3.3c-1.595.798-5.6.85-5.6.85s-1.025 3.07-2.198 4.237c-1.226 1.22-4.595 2.4-4.595 2.4.498-1.4.794-2.472.09-4.242 0 0-1.674 2.45-3.303 3.61-1.418 1.01-4.878 2.258-4.878 2.258.278-1.306 1.071-2.546 0-4.026 0 0-1.424 2.476-2.662 3.39-1.236.913-4.504 1.907-4.504 1.907.633-1.412 1.038-2.825 0-4.237 0 0-1.354 2.538-2.568 3.39-1.675 1.176-5.704 2.464-5.704 2.464.68-1.457 1.333-2.914.83-4.371l-2.74-.004c-3.309-.005-3.52 2.33-5.06 3.392-1.513 1.044-3.97 1.068-5.148.742-2.077-.573-3.924-2.59-1.402-5.555-4.362.39-6.635-1.892-6.624-3.923.01-1.95.86-3.673 5.259-3.464 0 0-.569-1.69-.347-2.579.309-1.237 1.576-2.311 3.29-2.19.706.049 2.014.434 2.613.972.947.852 1.208 2.092 2.782 3.017 1.783 1.047 6.023.962 6.023.962s8.24-3.724 13.675-5.227c2.892-.8 11.105-2.008 11.105-2.008l.257-16.852c4.936.254 2.813.29 6.987.186 5.995-.15 21.745 1.88 21.745 1.88l11.214-.64s18.706-2.358 27.605-3.095c4.483-.371 9.013-.638 13.515-.442 6.78.296 12.604 1.7 18.978 1.99 5.359.242 9.019.699 14.377.441 7.65-.367 21.325.064 25.67-5.713 1.128-1.5.549-3.553-1.134-4.708-2.22-1.524-3.8-2.097-6.762-1.574-1.562.277-3.548 1.193-3.743 2.32-.105.612.027 1.151.695 1.873a8.711 8.711 0 0 0 2.445 1.84s-3.856.147-5.367-.782c-1.59-.978-2.482-3.859-2.482-3.859-.747.793-1.297 1.662-1.171 2.79.108.973-.005 1.582 1.413 3.058 0 0-3.511-.189-5.192-1.671-1.13-.996-2.053-3.99-2.053-3.99-.996.755-1.604 1.979-1.646 2.88-.062 1.304.673 1.875 1.042 3.245 0 0-3.46-.782-4.83-2.228-1.062-1.122-1.629-4.068-1.629-4.068-3.98.762-11.58 1.84-19.855 3.207-5.83.962-14.733 2.44-21.025 3.049-10.806 1.044-18.673.503-25.316-1.664-3.457-1.127-5.014-2.212-5.906-4.773-.505-1.454.24-3.513 1.956-5.116 2.392-2.235 6.547-3.908 11.188-4.792 0 0 12.292-2.537 19.451-3.048 11.479-.82 16.147.413 20.944.877 3.117.302 6.471-.193 7.453-1.094.826-.758 2.193-1.575.351-3.402 0 0 2.333.035 3.882 2.237.633.9-.147 2.978-.147 2.978z" style="fill:#d5112d;fill-opacity:1;stroke:#fff;stroke-width:.738183px;stroke-linecap:butt;stroke-linejoin:miter;stroke-miterlimit:4;stroke-dasharray:none;stroke-opacity:1"/><path id="path4312-59-1-4-2-6-0-7" d="M-131.312 218.874c14.27-.202 25.528-10.665 35.223-13.848-20.182 5.534-25.362 5.324-27.918 7.32-1.082.845-1.121 1.969-2.11 3.138-.982 1.162-2.91 2.369-5.195 3.39z" style="fill:#d5112d;fill-opacity:1;stroke:none;stroke-width:.738183px;stroke-miterlimit:4;stroke-dasharray:none;stroke-opacity:1"/><path id="path4314-83-1-2-3-7-8-8" d="M-36.238 217.58c-20.53 1.121-21.814-12.733-42.313-14.4 17.386 7.795 19.475 19.63 42.313 14.4z" style="fill:#d5112d;fill-opacity:1;stroke:none;stroke-width:.738183px;stroke-miterlimit:4;stroke-dasharray:none;stroke-opacity:1"/><path id="path4316-09-6-6-6-5-0-5" d="M-27.144 216.488c2.058 5.759 7.202 9.204 12.76 12.636-2.432-5.805-6.628-9.556-12.76-12.636z" style="fill:#d5112d;fill-opacity:1;stroke:none;stroke-width:.738183px;stroke-miterlimit:4;stroke-dasharray:none;stroke-opacity:1"/><g style="fill:#d5112d;fill-opacity:1;stroke:#fff;stroke-width:.703542px;stroke-miterlimit:4;stroke-dasharray:none;stroke-opacity:1" id="g4351-07-1-0-60-7-6-4" transform="matrix(1.14622 0 0 .96046 -695.395 402.024)"><path style="fill:#d5112d;fill-opacity:1;stroke:#fff;stroke-width:.703542px;stroke-linecap:butt;stroke-linejoin:miter;stroke-miterlimit:4;stroke-dasharray:none;stroke-opacity:1" d="M582.906-173.1c1.206-.457 2.188-.07 2.708 1.006.258.535.19 1.21-.41 1.997-2.122-.003-2.91.287-4.46 1.993.205-3.693 1.767-4.076 2.162-4.996z" id="path4318-68-9-9-5-5-2-3"/><path style="fill:#d5112d;fill-opacity:1;stroke:#fff;stroke-width:.703542px;stroke-linecap:butt;stroke-linejoin:miter;stroke-miterlimit:4;stroke-dasharray:none;stroke-opacity:1" d="M589.888-168.72c.9-.924 1.953-.989 2.879-.233.46.375.683 1.017.472 1.983-1.924.895-2.516 1.49-3.2 3.691-1.375-3.434-.12-4.44-.151-5.441z" id="path4318-1-3-34-98-0-3-4-4"/><path style="fill:#d5112d;fill-opacity:1;stroke:#fff;stroke-width:.703542px;stroke-linecap:butt;stroke-linejoin:miter;stroke-miterlimit:4;stroke-dasharray:none;stroke-opacity:1" d="M598.519-169.35c.627-1.127 1.627-1.465 2.718-.976.542.242.925.803.974 1.791-1.625 1.365-2.04 2.094-2.127 4.398-2.223-2.957-1.275-4.255-1.565-5.214z" id="path4318-8-8-7-9-1-5-6-9"/></g><path id="path4318-80-61-9-2-3-6-8-8" d="M-189.934 221.087c1.34.524 1.808 1.459 1.34 2.537-.234.536-.844.941-1.97 1.056-1.693-1.462-2.561-1.81-5.202-1.735 3.198-2.333 4.76-1.514 5.832-1.858z" style="fill:#d5112d;fill-opacity:1;stroke:#fff;stroke-width:.738183px;stroke-linecap:butt;stroke-linejoin:miter;stroke-miterlimit:4;stroke-dasharray:none;stroke-opacity:1"/><path id="path4318-1-4-9-8-2-65-3-7-0" d="M-195.47 227.542c1.477.038 2.348.741 2.427 1.887.04.57-.33 1.144-1.31 1.622-2.246-.782-3.207-.814-5.597.13 1.836-3.201 3.658-2.967 4.48-3.639z" style="fill:#d5112d;fill-opacity:1;stroke:#fff;stroke-width:.738183px;stroke-linecap:butt;stroke-linejoin:miter;stroke-miterlimit:4;stroke-dasharray:none;stroke-opacity:1"/><path id="path4318-8-6-6-0-8-0-2-3-8" d="M-191.065 235.499c1.317-.563 2.484-.297 3.21.676.362.484.368 1.136-.217 1.95-2.418.22-3.28.579-4.832 2.37-.228-3.548 1.503-4.076 1.839-4.996z" style="fill:#d5112d;fill-opacity:1;stroke:#fff;stroke-width:.738183px;stroke-linecap:butt;stroke-linejoin:miter;stroke-miterlimit:4;stroke-dasharray:none;stroke-opacity:1"/><path id="path4316-0-7-7-7-7-7-8-5" d="M-153.042 222.519c-9.414-.525-14.996 2.825-22.682 6.484 9.66.2 15.235-2.152 22.682-6.484z" style="fill:#d5112d;fill-opacity:1;stroke:none;stroke-width:.738183px;stroke-miterlimit:4;stroke-dasharray:none;stroke-opacity:1"/><path d="M-129.145 203.952c2.201 1.147 4.618-.356 5.116-.51 0 0-1.054-.615-1.767-2.096-.48-.996-.645-2.754-.69-3.579-.164-3.062 1.294-3.537 1.342-3.306 0 0 2.421-.695 3.425-1.344.952-.613 1.392-1.678 1.655-2.66.393-1.472-.299-3.635-.299-3.635-3.518-.17-4.413.22-5.237 1.123 0 0-.073-1.505-.562-2.879-.244-.684-.807-1.704-1.383-2.364-.593-.678-1.197-.988-1.197-.988-.022.781-.86 1.495-1.288 2.04 0 0-.357-2.992-1.253-4.065-.69-.828-2.597-1.93-2.583-1.927.014.004-2.166.105-3.28.49-1.444.5-3.669 2.86-3.669 2.86-.01-.653-.258-1.632.226-2.3 0 0-.708-.012-1.643.292-.91.296-2.04.9-2.686 1.367-1.295.937-2.323 2.172-2.323 2.172-.058-1.183-.539-1.864-3.691-3.31 0 0-1.974 1.51-2.588 2.928-.41.945-.724 2.041-.317 2.988.43 1 2.022 2.678 2.022 2.678.189-.174 1.112.885-.995 3.39-.568.675-1.838 2.082-2.882 2.705-1.553.925-2.836.969-2.836.969.783 1.708.997 2.408 3.982 2.738-6.803 4.09-7.575 10.617-2.352 16.177.34-.668 1.507-2.184 2.196-2.766-.074-.048.087 3.213 2.03 4.874.63.538.936 3.537 1.846 4.48.83.86 1.997 1.796 1.997 1.796s.906-2.378 2.233-2.749c1.337-.373 3.834-.971 4.658-1.189 1.658-.438 4.61-3.398 4.61-3.398l-.518 3.62c8.95-2.66 10.993-7.751 8.701-14.622z" style="fill:#d5112d;fill-opacity:1;stroke:#fff;stroke-width:.738183px;stroke-miterlimit:4;stroke-dasharray:none;stroke-opacity:1;display:inline" id="path14997-8-0-1-79-2-8-3-77-7-8-2-2-9-1-4"/><path d="M-151.303 189.006c-.567.675-3.345 4.393-4.39 5.016-1.552.925-2.835.969-2.835.969.783 1.708.997 2.408 3.982 2.738-6.803 4.091-7.575 10.617-2.352 16.177.34-.668 1.507-2.184 2.196-2.766-.074-.048.087 3.213 2.03 4.874.63.539.936 3.537 1.846 4.48.83.86 1.997 1.796 1.997 1.796s.905-2.378 2.233-2.749c1.337-.373 3.834-.971 4.658-1.189 1.658-.438 4.61-3.398 4.61-3.398l-.518 3.62c8.95-2.66 10.993-7.751 8.701-14.622 2.201 1.147 4.618-.356 5.116-.51 0 0-1.054-.615-1.767-2.096-.48-.996-.612-2.756-.69-3.579l-.212-2.254s-1.012 2.531-1.252 3.236c-.24.705.085 3.21.085 3.21-1.453-.429-2.917-.829-4.199-1.761 0 0 1.537 5.084 1.703 7.506.09 1.31-.442 3.634-1.044 4.844-.639 1.282-3.746 3.249-3.746 3.249s.746-3.254.732-4.37c-.021-1.586-.77-5.613-.77-5.613s-1.075 4.128-1.928 5.358c-.972 1.4-2.753 3.867-2.753 3.867.5-3.947.019-5.72-.588-7.213 0 0-.885 6.457-2.955 8.567-.517.527-2.478.948-3.599 1.437-1.244.543-1.627 1.128-1.627 1.128s-1.173-2.747-1.5-3.382c-.722-1.405-2.156-2.882-2.645-4.356-.719-2.167 2.748-6.826 2.748-6.826-1.283.02-2.568 1.283-3.952 2.676-1.13 1.137-2.422 2.338-3.045 3.204 0 0-1.108-3.386-1.09-4.39.026-1.423.665-2.85 1.538-4.07 1.417-1.982 7.647-6.051 7.647-6.051-1.715.387-3.267.898-6.519.105 0 0 2.574-2.529 2.995-3.123 1.292-1.822.805-2.513 1.16-3.739z" style="fill:#d5112d;fill-opacity:1;stroke:#fff;stroke-width:.738183px;stroke-miterlimit:4;stroke-dasharray:none;stroke-opacity:1;display:inline" id="path14997-8-0-1-79-2-8-3-7-0-4-5-4-6-4-5-7-2"/><path d="M-148.016 202.344c-3.124 6.332 8.963 9.534 10.731 2.567-3.244-.19-6.641-.686-10.73-2.567z" style="fill:#d5112d;fill-opacity:1;stroke:#fff;stroke-width:.738183px;stroke-miterlimit:4;stroke-dasharray:none;stroke-opacity:1" id="path5160-2-5-95-68-75-5-6-9-8"/><path id="path4962-4-95-31-8-1-4-5-5" d="M-139.578 189.63s.676.96 1.256 1.125c.579.164 1.808-.255 1.808-.255l-.391-4.144z" style="fill:#d5112d;fill-opacity:1;stroke:#fff;stroke-width:.738183px;stroke-miterlimit:4;stroke-dasharray:none;stroke-opacity:1"/><g transform="matrix(1.1022 .2636 -.31458 .92358 -943.632 209.224)" id="g4958-2-9-4-7-53-1-0-9" style="fill:#d5112d;fill-opacity:1;stroke:#fff;stroke-width:.703542px;stroke-miterlimit:4;stroke-dasharray:none;stroke-opacity:1"><ellipse ry="1.577" rx="1.609" cy="589.082" cx="933.505" style="fill:#d5112d;fill-opacity:1;stroke:#fff;stroke-width:.703542px;stroke-miterlimit:4;stroke-dasharray:none;stroke-opacity:1" id="path4904-1-57-2-4-6-7-09-5" transform="translate(-265.654 -796.352)"/><ellipse ry="1.577" rx="1.609" cy="589.082" cx="933.505" style="fill:#d5112d;fill-opacity:1;stroke:#fff;stroke-width:.703542px;stroke-miterlimit:4;stroke-dasharray:none;stroke-opacity:1" id="path4904-2-1-2-8-2-9-9-0-0" transform="translate(-260.641 -796.352)"/></g><path id="path4930-1-76-98-5-96-6-8-9" d="M-144.718 184.117c-.781-.088-1.721.023-2.288.483-.34.275-.393 1.154-.393 1.154l1.225.012 1.378.33 2.972 1.116 3.257-.157s-1.78-.61-2.65-1.023c-1.175-.558-2.162-1.764-3.5-1.915zm15.603 3.731c-1.124-.24-2.413.26-3.594.219-1-.035-2.964-.32-2.964-.32l2.667 1.574 3.228.366 1.343.322 1.048.531s.508-.77.393-1.154c-.191-.641-.92-1.152-1.638-1.422-.155-.058-.322-.081-.483-.116z" style="fill:#d5112d;fill-opacity:1;stroke:#fff;stroke-width:.738183px;stroke-miterlimit:4;stroke-dasharray:none;stroke-opacity:1"/><path d="M-125.707 187.919s-.073-1.504-.562-2.878c-.244-.685-.807-1.705-1.383-2.365-.593-.678-1.197-.988-1.197-.988-.022.782-.86 1.495-1.288 2.04 0 0-.357-2.992-1.253-4.065-.69-.827-2.597-1.93-2.583-1.926.014.003-2.166.104-3.28.49-1.444.5-3.669 2.86-3.669 2.86-.01-.653-.258-1.633.226-2.3 0 0-.708-.013-1.643.291-.91.296-2.04.9-2.686 1.368-1.295.937-2.323 2.171-2.323 2.171 1.141-.033 3.68-1.951 4.66-1.765.834.158.256 2.024 1.06 2.11 1.096.116 2.072-1.322 3.435-2.328 1.21-.892 2.89-1.57 3.693-1.35.809.221 1.813 1.545 2.24 2.84.506 1.528.878 3.175 1.716 3.518.832.341 1.554-1.554 2.402-1.315 1.006.282 1.473 3.169 2.435 3.592z" style="fill:#d5112d;fill-opacity:1;stroke:#fff;stroke-width:.738183px;stroke-miterlimit:4;stroke-dasharray:none;stroke-opacity:1;display:inline" id="path14997-8-0-1-79-2-8-3-7-7-76-99-3-0-1-4-9-2"/><path d="M-129.145 203.952c2.201 1.147 4.618-.356 5.116-.51 0 0-1.054-.615-1.767-2.096-.48-.996-.645-2.754-.69-3.579-.164-3.062 1.294-3.537 1.342-3.306 0 0 2.421-.695 3.425-1.343.952-.614 1.392-1.68 1.655-2.66.393-1.473-.299-3.636-.299-3.636-3.518-.17-4.413.22-5.237 1.123 0 0-.073-1.505-.562-2.879-.244-.684-.807-1.704-1.383-2.364-.593-.678-1.197-.988-1.197-.988-.022.781-.86 1.495-1.288 2.04 0 0-.358-2.992-1.253-4.065-.69-.828-1.575-1.519-2.583-1.927-.013-.006-2.166.105-3.28.49-1.444.5-3.669 2.86-3.669 2.86-.01-.653-.258-1.632.226-2.3 0 0-.708-.012-1.643.292-.91.296-2.04.9-2.686 1.367-1.295.937-2.323 2.172-2.323 2.172-.058-1.183-.539-1.864-3.691-3.31 0 0-1.974 1.51-2.588 2.928-.41.945-.724 2.041-.317 2.988.43 1 2.022 2.678 2.022 2.678.189-.174 1.112.885-.995 3.39-.568.675-1.838 2.082-2.882 2.705-1.553.925-2.836.969-2.836.969.783 1.708.997 2.408 3.982 2.738-6.803 4.091-7.575 10.617-2.352 16.177.34-.668 1.507-2.183 2.196-2.766-.074-.048.087 3.213 2.03 4.874.63.539.936 3.537 1.846 4.48.83.86 1.997 1.796 1.997 1.796s.906-2.378 2.233-2.749c1.337-.373 3.834-.971 4.658-1.189 1.658-.438 4.61-3.398 4.61-3.398l-.518 3.62c8.95-2.66 10.993-7.751 8.701-14.622z" style="fill:#d5112d;fill-opacity:1;stroke:#fff;stroke-width:.738183px;stroke-linecap:butt;stroke-linejoin:miter;stroke-miterlimit:4;stroke-dasharray:none;stroke-opacity:1;display:inline" id="path14997-8-0-1-79-2-8-3-7-00-83-7-2-3-2-2-8"/><path style="fill:#d5112d;fill-opacity:1;stroke:#fff;stroke-width:.738183px;stroke-linecap:butt;stroke-linejoin:miter;stroke-miterlimit:4;stroke-dasharray:none;stroke-opacity:1" d="M-147.576 185.951s.585-.623 1.006-.772c.353-.126.774-.123 1.15-.06.263.044.48.198.719.297.335.139.663.291 1.006.416.306.112.614.22.935.297.469.113.953.183 1.437.238.31.035.624.031.935.06.337.03.667.107 1.006.118.384.013 1.15-.059 1.15-.059s-.185.517-.287.773c-.113.279-.177.579-.36.831-.183.253-.467.446-.719.654-.275.229-.582.43-.862.654-.209.167-.425.328-.609.514-.21.211-.39.442-.558.678-.149.21-.393.654-.393.654l.05.234h-.072" id="path2757-5-9"/><ellipse style="opacity:1;fill:#d5112d;fill-opacity:1;stroke:#fff;stroke-width:.738183px;stroke-miterlimit:4;stroke-dasharray:none;stroke-opacity:1" id="path2839-0-9" cx="-131.321" cy="190.231" rx="2.44" ry="2.017"/><path style="fill:#d5112d;fill-opacity:1;stroke:#fff;stroke-width:.738183px;stroke-linecap:butt;stroke-linejoin:miter;stroke-miterlimit:4;stroke-dasharray:none;stroke-opacity:1" d="M-127.07 191.065s-.133-.75-.359-1.07a1.82 1.82 0 0 0-.718-.594c-.28-.128-.619-.138-.935-.178-.309-.039-.624-.031-.934-.06-.337-.03-.675-.06-1.007-.118a9.77 9.77 0 0 1-1.294-.297 7.885 7.885 0 0 1-1.293-.535c-.259-.137-.475-.322-.72-.475-.258-.164-.79-.476-.79-.476s-.346.204-.431.357c-.13.234-.06.514-.072.772-.017.357-.043.715 0 1.07.024.2.102.395.144.594.057.276.062.56.143.832.086.286.299.542.36.832.045.215.004.436 0 .654-.004.215-.025.647-.025.647" id="path2759-6-6"/><path style="fill:#d5112d;fill-opacity:1;stroke:#fff;stroke-width:.738183px;stroke-linecap:butt;stroke-linejoin:miter;stroke-miterlimit:4;stroke-dasharray:none;stroke-opacity:1" d="M-149.784 187.084s.487-1.057.647-1.605c.148-.506.223-1.026.288-1.545.046-.375.17-.76.072-1.129-.089-.328-.333-.62-.575-.891a3.49 3.49 0 0 0-.647-.535c-.2-.136-.647-.356-.647-.356s-.835.902-1.078 1.426c-.149.319-.203.668-.216 1.01-.014.358-.004.733.144 1.07.148.335.303.664.515.975.221.324.529.617.779.926.197.245.718.654.718.654z" id="path2761-7-1"/><path style="fill:#d5112d;fill-opacity:1;stroke:#fff;stroke-width:.738183px;stroke-linecap:butt;stroke-linejoin:miter;stroke-miterlimit:4;stroke-dasharray:none;stroke-opacity:1" d="M-126.135 192.73s1.113-.294 1.653-.476c.417-.14.85-.267 1.222-.476.38-.211.769-.449 1.007-.772.232-.316.26-.709.36-1.07.09-.333.179-.67.215-1.01.023-.217 0-.654 0-.654v-.297l-1.366.178-.934.298s-.585.353-.791.594c-.285.333-.401.747-.575 1.129-.187.41-.33.833-.503 1.248-.116.278-.32.54-.36.832-.02.159.072.475.072.475z" id="path2763-8-3"/><path style="fill:#d5112d;fill-opacity:1;stroke:#fff;stroke-width:.738183px;stroke-linecap:butt;stroke-linejoin:miter;stroke-miterlimit:4;stroke-dasharray:none;stroke-opacity:1" d="M-141.23 191.006c.587-.116 1.195-.149 1.797-.178.287-.015.578-.033.863 0 .345.04.681.133 1.006.237.5.16.982.362 1.438.595.204.104.41.212.575.356.237.208.575.713.575.713l-.072.594-.144.476s-.618-.138-.934-.178c-.31-.04-.639-.143-.935-.06-.305.086-.476.36-.719.535-.166.12-.3.285-.503.357-.221.078-.48.087-.719.059-.255-.03-.485-.146-.718-.238-.223-.087-.504-.131-.647-.297-.156-.18-.06-.443-.144-.654a1.398 1.398 0 0 0-.288-.475c-.173-.175-.415-.295-.646-.416-.136-.07-.432-.178-.432-.178l-.575-.238.431-.772s.518-.184.791-.238z" id="path2765-5-0"/><path style="fill:#d5112d;fill-opacity:1;stroke:#fff;stroke-width:.738183px;stroke-linecap:butt;stroke-linejoin:miter;stroke-miterlimit:4;stroke-dasharray:none;stroke-opacity:1" d="M-137.133 198.553v1.248l-.215 1.426s.998-.818 1.366-1.307c.26-.347.443-.736.575-1.13.135-.404.143-.683.143-.683a4.9 4.9 0 0 1-1.869.06z" id="path2777-5-3"/><path style="fill:#d5112d;fill-opacity:1;stroke:#fff;stroke-width:.738183px;stroke-linecap:butt;stroke-linejoin:miter;stroke-miterlimit:4;stroke-dasharray:none;stroke-opacity:1" d="M-148.274 187.797s-.523 1.142-.431 1.723c.069.44.387.84.718 1.189.369.386.838.723 1.366.95.33.143 1.078.238 1.078.238s-.428.854-.503 1.308c-.084.51-.136 1.059.072 1.545.2.466.65.841 1.078 1.188.38.308.8.608 1.294.773.471.157 1.002.205 1.51.178.446-.024.876-.164 1.293-.297.3-.096.863-.357.863-.357s.378.626.647.892c.327.323.694.643 1.15.832.416.171.902.207 1.366.237.502.034 1.02.037 1.51-.06.459-.09.938-.218 1.293-.474.446-.322.678-.808.935-1.248.154-.266.248-.553.36-.832.077-.197.215-.595.215-.595s.557.247.862.298c.33.054.678.054 1.007 0 .305-.051.588-.176.862-.298.457-.202.951-.391 1.294-.713.248-.232.365-.543.503-.832a5.92 5.92 0 0 0 .216-.594" id="path2767-3-8"/><path style="fill:#d5112d;fill-opacity:1;stroke:#fff;stroke-width:.738183px;stroke-linecap:butt;stroke-linejoin:miter;stroke-miterlimit:4;stroke-dasharray:none;stroke-opacity:1" d="M-147.627 201.88s-.37.836-.467 1.293c-.092.43-.133.887-.108 1.322.024.418-.029.855.143 1.248.188.429.545.807.935 1.13.39.322.878.558 1.366.772.637.279 1.313.51 2.012.654.609.125 1.244.213 1.87.178.765-.044 1.557-.168 2.228-.476.607-.278 1.09-.73 1.51-1.188.31-.34.52-.737.718-1.13.184-.363.431-1.128.431-1.128l-1.797-.12-2.156-.177-2.157-.476-2.372-.832-1.366-.594z" id="path2769-3-4"/><path style="fill:#d5112d;fill-opacity:1;stroke:#fff;stroke-width:.738183px;stroke-linecap:butt;stroke-linejoin:miter;stroke-miterlimit:4;stroke-dasharray:none;stroke-opacity:1" d="M-145.613 195.279s-.18 2.653-.584 3.822c-.284.822-.882 1.831-.882 1.831l-.54.95" id="path2773-0-5"/><path style="fill:#d5112d;fill-opacity:1;stroke:#fff;stroke-width:.738183px;stroke-linecap:butt;stroke-linejoin:miter;stroke-miterlimit:4;stroke-dasharray:none;stroke-opacity:1" d="M-134.305 197.86s-1.06 1.74-1.51 2.542c-.26.468-.54.933-.718 1.426-.186.515-.3 1.05-.36 1.585-.04.355-.09 1.054-.09 1.054" id="path2775-2-0"/><path style="fill:#d5112d;fill-opacity:1;stroke:#fff;stroke-width:.738183px;stroke-linecap:butt;stroke-linejoin:miter;stroke-miterlimit:4;stroke-dasharray:none;stroke-opacity:1" d="m-145.255 199.207 1.617-2.556c-.651-.268-1.216-.584-1.581-1.01l-.072.119-.072.683-.18 1.159.072.891z" id="path2779-2-3"/><path style="fill:#d5112d;fill-opacity:1;stroke:#fff;stroke-width:.738183px;stroke-linecap:butt;stroke-linejoin:miter;stroke-miterlimit:4;stroke-dasharray:none;stroke-opacity:1" d="M-145.543 202.95v-.475l.216-2.199-.79.832s-.477.452-.648.713c-.267.408-.251.386-.251.386z" id="path2781-6-0"/><path style="fill:#d5112d;fill-opacity:1;stroke:#fff;stroke-width:.738183px;stroke-linecap:butt;stroke-linejoin:miter;stroke-miterlimit:4;stroke-dasharray:none;stroke-opacity:1" d="m-137.923 201.94-1.438 2.466 1.653.06s.015.01 0-.387c-.013-.358-.143-1.07-.143-1.07z" id="path2783-3-6"/><ellipse style="opacity:1;fill:#d5112d;fill-opacity:1;stroke:#fff;stroke-width:.738183px;stroke-miterlimit:4;stroke-dasharray:none;stroke-opacity:1" id="path2839-2-8" cx="-143.362" cy="187.273" rx="1.181" ry=".976"/><ellipse style="opacity:1;fill:#d5112d;fill-opacity:1;stroke:#fff;stroke-width:.738183px;stroke-miterlimit:4;stroke-dasharray:none;stroke-opacity:1" id="path2839-2-9-9" cx="-131.39" cy="190.204" rx="1.181" ry=".976"/><path d="M-143.045 196.831c-1.505 4.166-2.815 8.874-1.795 13.211 3.597-3.232 5.437-7.77 6.783-11.975.006-.17-.989-.545-1.116-.679-.312-.33-.84-1.109-.84-1.109s-1.006.533-1.574.645c-.485.096-1.458-.093-1.458-.093z" style="fill:#d5112d;fill-opacity:1;stroke:#fff;stroke-width:.738183px;stroke-linecap:butt;stroke-linejoin:miter;stroke-miterlimit:4;stroke-dasharray:none;stroke-opacity:1" id="path5010-2-2-15-3-4-0-1-2-1"/><path style="fill:#d5112d;fill-opacity:1;stroke:#fff;stroke-width:.738183px;stroke-linecap:butt;stroke-linejoin:miter;stroke-miterlimit:4;stroke-dasharray:none;stroke-opacity:1" d="M-145.345 185.283c.038-.042.673-.966.673-.966s2.402.347 2.478.368c.076.02 2.148.724 2.148.724l.101 1.198-.42-.021-.736-.063-.991-.126-.813-.158-.687-.22-.711-.284-.572-.252-.318-.147z" id="path3263"/><path style="fill:#d5112d;fill-opacity:1;stroke:#fff;stroke-width:.738183px;stroke-linecap:butt;stroke-linejoin:miter;stroke-miterlimit:4;stroke-dasharray:none;stroke-opacity:1" d="m-145.118 185.23.836-1.225 4.762.936-.431 1.545-.53-.038-.827-.066-.827-.097-.781-.163-.638-.216-.719-.282-.584-.253z" id="path3296"/><path style="fill:#d5112d;fill-opacity:1;stroke:#fff;stroke-width:.738183px;stroke-linecap:butt;stroke-linejoin:miter;stroke-miterlimit:4;stroke-dasharray:none;stroke-opacity:1" d="m-134.147 187.696.917-1.099 5.526 1.055-.504 1.612-.566-.12-.736-.059-1.007-.074-.647-.104-.584-.111-.79-.216-.647-.275-.647-.356z" id="path3298"/></g></g></g></svg>