<svg xmlns="http://www.w3.org/2000/svg" data-name="Layer 1" width="786.82" height="572.258"><path d="M608.426 55.32c-.87-.58-1.75-1.13-2.62-1.69a380.24 380.24 0 0 0-80.31-38.93l-6.54 90.22h-41.46V1.53c-2.61-.54-5.24-1.05-7.87-1.53v104.92h-49.27A102.27 102.27 0 0 1 318.086 2.65c-2.64.57-5.26 1.18-7.88 1.83v100.44h-40.13l-6.23-86.03a380.858 380.858 0 0 0-81.94 43.53c-.44.3-.88.61-1.31.91-2.21 1.55-4.39 3.13-6.56 4.73v344.19h118.27l-2.09-28.95-11.5-158.95h231.59l-11.5 158.95-2.09 28.95h116.96V58.8q-2.61-1.77-5.25-3.48ZM310.206 198.1h-33.39l-6.17-85.3h39.56Zm159.42 0h-56.08v-1.69a6.18 6.18 0 0 0-6.19-6.18h-24.38a6.178 6.178 0 0 0-6.18 6.18v1.69h-58.71v-85.3h151.54Zm7.87 0v-85.3h40.89l-6.17 85.3Z" fill="#3f3d56"/></svg>